<svg xmlns="http://www.w3.org/2000/svg" viewBox="0 0 982.18 160.54"><path d="M69.26,420.1q18.1,0,31.74,9.38t21.15,26.94q7.53,17.56,7.53,42.64,0,24.44-7.74,42.75t-21.49,28.58A51.17,51.17,0,0,1,69,580.64q-18.11,0-31.73-9.38t-21.16-27q-7.53-17.65-7.53-42.53,0-24.42,7.75-42.75t21.48-28.57A51.12,51.12,0,0,1,69.26,420.1ZM68.39,424q-13.3,0-19.74,19.85t-6.44,56.93q0,38.18,7.42,57t20.29,18.86q13.29,0,19.73-19.85t6.44-56.92q0-38.18-7.42-57T68.39,424Z" transform="translate(-8.62 -420.1)" fill="#e5ccaf"/><path d="M227.4,420.1l-.44,7L146.91,539.42l9.82-16.8h97.71v21.16H142.11V539.2Zm3.49,0V554.46A47.07,47.07,0,0,0,232,566.24a7.32,7.32,0,0,0,4.36,5.24,33.41,33.41,0,0,0,9.6,1.74v4.37q-5-.44-13.53-.55t-18.32-.11c-5.53,0-11,0-16.47.11s-10,.26-13.63.55v-4.37a54.41,54.41,0,0,0,12.32-1.74,8.23,8.23,0,0,0,5.68-5.24q1.41-3.91,1.41-11.78V457.62l24-37.52Z" transform="translate(-8.62 -420.1)" fill="#e5ccaf"/><path d="M332.09,420.1q18.11,0,31.74,9.38T385,456.42q7.51,17.56,7.52,42.64,0,24.44-7.74,42.75t-21.49,28.58a51.17,51.17,0,0,1-31.41,10.25q-18.11,0-31.73-9.38t-21.16-27q-7.53-17.65-7.53-42.53,0-24.42,7.75-42.75t21.48-28.57A51.12,51.12,0,0,1,332.09,420.1Zm-.87,3.93q-13.31,0-19.74,19.85T305,500.81q0,38.18,7.42,57t20.29,18.86q13.29,0,19.74-19.85t6.43-56.92q0-38.18-7.42-57T331.22,424Z" transform="translate(-8.62 -420.1)" fill="#fff"/><path d="M481.72,420.1a92.33,92.33,0,0,1,12.22,1.09,35.73,35.73,0,0,1,14.17,5.24,25.46,25.46,0,0,1,8.62,7.52,17.37,17.37,0,0,1,3.38,10.36A15.47,15.47,0,0,1,515.2,456a17.39,17.39,0,0,1-12.54,4.69q-7.64,0-12.1-4.36a14.58,14.58,0,0,1-4.48-10.9,16.58,16.58,0,0,1,3.49-10.26,20.28,20.28,0,0,1,10-6.76,18.64,18.64,0,0,0-7.86-3.38,43.31,43.31,0,0,0-8.5-1,27.48,27.48,0,0,0-13.74,3.71q-6.56,3.7-11.56,13T450,466q-2.94,16-2.94,40.68,0,20.94,2.07,34.46t5.56,21.16q3.49,7.63,7.86,10.79a15.06,15.06,0,0,0,8.94,3.17q8.71,0,15.27-10.58T493.28,529q0-23.13-5.45-33.27t-14.18-10.14a22.06,22.06,0,0,0-9.6,2.73q-5.44,2.73-10.14,9.81T447,518.48l-2.62.43q1.32-14.82,6.76-23.34a31.3,31.3,0,0,1,13.42-12.1,39.58,39.58,0,0,1,16.47-3.6,47.66,47.66,0,0,1,22.14,5.34,41.21,41.21,0,0,1,16.68,16q6.33,10.69,6.33,27,0,17.24-7.53,28.9a47.38,47.38,0,0,1-20.06,17.56,64.62,64.62,0,0,1-27.81,5.89q-28.14,0-42.43-18.43t-14.29-54q0-27,8.4-46.78t23.56-30.54Q461.21,420.1,481.72,420.1Z" transform="translate(-8.62 -420.1)" fill="#fff"/><path d="M591.43,420.1a65.79,65.79,0,0,1,24.32,4.26,38.12,38.12,0,0,1,17,12.54q6.21,8.3,6.21,20.72a45.57,45.57,0,0,1-5.78,22.14,112.67,112.67,0,0,1-15.81,21.59q-10,11-22.58,23.45t-26.06,27.7H622a15.28,15.28,0,0,0,9.71-3.16q4-3.17,5.12-11.89h5c-.15,1.6-.29,3.57-.44,5.89s-.22,4.51-.22,6.54q0,4.8.33,12.33t1.2,15.38h-60q-14.4,0-23.34-.22t-17.45.22v-4.37a294.12,294.12,0,0,0,22.9-22.79,214.91,214.91,0,0,0,20.72-26.94,139.37,139.37,0,0,0,14.94-30.32,98.44,98.44,0,0,0,5.57-32.71q0-13.53-3.49-21.27t-9.16-10.91a24.38,24.38,0,0,0-12-3.16,26.83,26.83,0,0,0-10.58,2.18,15.27,15.27,0,0,0-7.53,6.33,17.6,17.6,0,0,1,10.37,6.1,16.5,16.5,0,0,1,3.59,10.47q0,7.65-5.12,11.78a18,18,0,0,1-11.67,4.15q-7.63,0-11.78-4.8a16.53,16.53,0,0,1-4.14-11.13,18.08,18.08,0,0,1,3.38-10.68,37.54,37.54,0,0,1,8-8.29,45,45,0,0,1,15.59-8.29A66.57,66.57,0,0,1,591.43,420.1Z" transform="translate(-8.62 -420.1)" fill="#e5ccaf"/><path d="M724.26,420.1q18.11,0,31.74,9.38t21.16,26.94q7.51,17.56,7.52,42.64,0,24.44-7.74,42.75t-21.48,28.58a51.19,51.19,0,0,1-31.41,10.25q-18.12,0-31.74-9.38t-21.16-27q-7.51-17.65-7.52-42.53,0-24.42,7.74-42.75t21.49-28.57A51.11,51.11,0,0,1,724.26,420.1Zm-.87,3.93q-13.3,0-19.74,19.85t-6.43,56.93q0,38.18,7.41,57t20.29,18.86q13.3,0,19.74-19.85t6.43-56.92q0-38.18-7.41-57T723.39,424Z" transform="translate(-8.62 -420.1)" fill="#e5ccaf"/><path d="M851.43,420.1a65.83,65.83,0,0,1,24.32,4.26,38,38,0,0,1,17,12.54q6.22,8.3,6.22,20.72a45.57,45.57,0,0,1-5.78,22.14,113.18,113.18,0,0,1-15.82,21.59q-10,11-22.57,23.45t-26.07,27.7H882a15.26,15.26,0,0,0,9.71-3.16q4-3.17,5.13-11.89h5c-.14,1.6-.29,3.57-.43,5.89s-.22,4.51-.22,6.54q0,4.8.33,12.33t1.2,15.38h-60q-14.38,0-23.34-.22t-17.44.22v-4.37a295.88,295.88,0,0,0,22.9-22.79,215.86,215.86,0,0,0,20.72-26.94,139.82,139.82,0,0,0,14.94-30.32A98.43,98.43,0,0,0,866,460.46q0-13.53-3.49-21.27t-9.16-10.91a24.35,24.35,0,0,0-12-3.16,26.78,26.78,0,0,0-10.57,2.18,15.27,15.27,0,0,0-7.53,6.33,17.58,17.58,0,0,1,10.36,6.1,16.51,16.51,0,0,1,3.6,10.47q0,7.65-5.13,11.78a18,18,0,0,1-11.66,4.15q-7.65,0-11.78-4.8a16.49,16.49,0,0,1-4.15-11.13,18.15,18.15,0,0,1,3.38-10.68,37.77,37.77,0,0,1,8-8.29,45.07,45.07,0,0,1,15.6-8.29A66.53,66.53,0,0,1,851.43,420.1Z" transform="translate(-8.62 -420.1)" fill="#e5ccaf"/><path d="M975.1,421V556.21a31.79,31.79,0,0,0,1.31,10.36,8.2,8.2,0,0,0,4.8,5A26,26,0,0,0,990.8,573v4.58q-4.8-.23-13.3-.55t-17.67-.33q-10.7,0-21.16.33t-16.36.55V573q8.3,0,12.87-1.75a11.22,11.22,0,0,0,6.55-6.22q2-4.45,2-12.76v-96.4q0-11.34-5-14.18t-19-2.84v-4.58q21.38-2.61,34.24-6.22A182.52,182.52,0,0,0,975.1,421Z" transform="translate(-8.62 -420.1)" fill="#e5ccaf"/></svg>