<svg xmlns="http://www.w3.org/2000/svg" viewBox="0 0 80.98 76.17"><path d="M24.59,30.79a12.6,12.6,0,0,1,17.3-.49,10.82,10.82,0,0,0,14.43,0A12.6,12.6,0,0,1,73.63,48.6L49.11,73.12,24.59,48.6a12.59,12.59,0,0,1,0-17.81Z" transform="translate(-9.09 -13.08)" fill="#ef3340"/><path d="M43.36,86.68a8.8,8.8,0,0,0,12.43,0L81.92,60.55A27.81,27.81,0,0,0,49.58,16.13,27.81,27.81,0,0,0,17.23,60.55Zm-13.7-53a10.23,10.23,0,0,1,14.05-.4,8.79,8.79,0,0,0,11.72,0,10.26,10.26,0,0,1,14.06.4,10.21,10.21,0,0,1,0,14.46L49.58,68,29.66,48.12a10.21,10.21,0,0,1,0-14.46Z" transform="translate(-9.09 -13.08)"/></svg>