<?xml version="1.0" encoding="utf-8"?>
<!-- Generator: Adobe Illustrator 24.0.1, SVG Export Plug-In . SVG Version: 6.00 Build 0)  -->
<svg version="1.1" id="Capa_1" xmlns="http://www.w3.org/2000/svg" xmlns:xlink="http://www.w3.org/1999/xlink" x="0px" y="0px"
	 viewBox="0 0 512 512" style="enable-background:new 0 0 512 512;" xml:space="preserve">
<style type="text/css">
	.st0{fill:#EFEDEF;}
	.st1{fill:#F9F7F8;}
	.st2{fill:#FEE45A;}
	.st3{fill:#FED402;}
	.st4{fill:#80D261;}
</style>
<g>
	<g>
		<path class="st0" d="M187.3,192.9l0.7-1.7c5.9-14.3,6.6-30.3,1.9-45.1c-13.8,7.2-24.6,18.9-30.5,33.3l-0.6,1.5l-35.3,64.3l33.7,17
			L187.3,192.9z"/>
		<path class="st0" d="M127.8,181.1l-0.7-1.7c-5.9-14.3-16.8-26.1-30.5-33.2c-4.7,14.8-4,30.8,2,45.1l0.6,1.5l24.3,62.8l30.1-11.7
			L127.8,181.1z"/>
		<path class="st0" d="M77.5,214.8l-1.7-0.7c-14.3-5.9-30.3-6.6-45.1-1.9c7.2,13.8,18.9,24.6,33.3,30.5l1.5,0.6l65.7,26l13.5-26
			L77.5,214.8z"/>
		<path class="st0" d="M209.1,302.7l1.7,0.7c14.3,5.9,30.3,6.6,45.1,1.9c-7.2-13.8-18.9-24.6-33.3-30.5l-1.5-0.6l-65.5-29.1
			L139.8,271L209.1,302.7z"/>
		<path class="st0" d="M187.4,324.7l0.6,1.5c5.9,14.3,6.6,30.3,2,45.1c-13.8-7.1-24.6-18.9-30.5-33.2l-0.7-1.7l-27.7-69.7l29.8-14.4
			L187.4,324.7z"/>
		<path class="st0" d="M127.8,336.6l-0.6,1.5c-5.9,14.3-16.7,26.1-30.5,33.3c-4.7-14.8-4-30.8,1.9-45.1l0.7-1.7l21.7-61.1l28.8,5.7
			L127.8,336.6z"/>
		<path class="st0" d="M77.3,302.9l-1.5,0.6c-14.3,5.9-30.3,6.6-45.1,2c7.1-13.8,18.9-24.6,33.2-30.5l1.7-0.7l53-22.6l16.6,28.5
			L77.3,302.9z"/>
		<path class="st0" d="M220.9,243.2l1.7-0.7c14.3-5.9,26.1-16.8,33.2-30.5c-14.8-4.7-30.8-4-45.1,2l-1.5,0.6
			c-1.2-0.3-81.1,30.5-81.1,30.5l11.6,27.9L220.9,243.2z"/>
	</g>
	<g>
		<path class="st1" d="M181.9,274.2h40.9c15.5,0,30.5-5.5,42.4-15.5c-11.9-10-26.9-15.5-42.4-15.5h-40.9h-53.7v30.9H181.9z"/>
		<path class="st1" d="M181.5,275.1l28.9,28.9c11,11,17.7,25.5,19,40.9c-15.5-1.3-29.9-8.1-40.9-19l-28.9-28.9l-31.5-33.4l23.7-22.9
			L181.5,275.1z"/>
		<path class="st1" d="M158.8,297.3v40.9c0,15.5-5.5,30.5-15.5,42.4c-10-11.9-15.5-26.9-15.5-42.4v-40.9v-45.1h30.9V297.3z"/>
		<path class="st1" d="M126.9,296.9L98,325.9c-11,11-25.5,17.7-40.9,19c1.3-15.5,8.1-29.9,19-40.9l28.9-28.9l32.5-30l21.2,18.4
			L126.9,296.9z"/>
		<path class="st1" d="M104.7,274.2H63.8c-15.5,0-30.5-5.5-42.4-15.5c11.9-10,26.9-15.5,42.4-15.5h40.9h39.9v30.9H104.7z"/>
		<path class="st1" d="M126.9,220.5L98,191.5c-11-11-25.5-17.7-40.9-19c1.3,15.5,8.1,29.9,19,40.9l28.9,28.9l28.1,22.9l18.7-22.8
			L126.9,220.5z"/>
		<path class="st1" d="M158.8,220.1v-40.9c0-15.5-5.5-30.5-15.5-42.4c-10,11.9-15.5,26.9-15.5,42.4v40.9l0.3,42h29L158.8,220.1z"/>
		<path class="st1" d="M159.7,220.5l28.9-28.9c11-11,25.5-17.7,40.9-19c-1.3,15.5-8.1,29.9-19,40.9l-28.9,28.9l-41.7,34l-14.6-26.8
			L159.7,220.5z"/>
	</g>
	<g>
		<circle class="st2" cx="143.3" cy="258.7" r="41.6"/>
	</g>
	<path class="st3" d="M123.4,259.3c0-19.6,13.6-36,31.8-40.4c-3.8-1.1-7.7-1.7-11.9-1.7c-23,0-41.6,18.6-41.6,41.6
		s18.6,41.6,41.6,41.6c3.4,0,6.7-0.4,9.8-1.2C135.9,294,123.4,278.1,123.4,259.3z"/>
	<path class="st0" d="M245.6,229.4l-2,0.8c-19.1,7.9-40.5,8.9-60.2,2.6c9.5-18.4,25.3-32.9,44.4-40.8l2.3-1l79.6-35.3l22.7,43.7
		L245.6,229.4z"/>
	<path class="st0" d="M313.2,274.5l-0.8,2c-7.9,19.2-22.4,34.9-40.7,44.5c-6.3-19.8-5.4-41.1,2.5-60.3l1-2.3l35.8-83.4l40.5,13
		L313.2,274.5z"/>
	<path class="st0" d="M392.8,258.6l0.8,2c7.9,19.1,8.9,40.5,2.6,60.2c-18.4-9.5-32.9-25.3-40.8-44.4l-1-2.3l-42.5-92l46.3-18.1
		L392.8,258.6z"/>
	<path class="st0" d="M437.9,191.1l2,0.8c19.2,7.9,34.9,22.4,44.5,40.7c-19.8,6.3-41.1,5.4-60.3-2.5l-2.3-1l-86.2-41.3l24.5-32.4
		L437.9,191.1z"/>
	<path class="st0" d="M437.6,149.7l2.3-1c19.1-7.9,34.9-22.4,44.4-40.8c-19.8-6.3-41.1-5.3-60.2,2.6l-2,0.8l-97.7,28.5l11.3,40.2
		L437.6,149.7z"/>
	<path class="st0" d="M392.6,82.4l1-2.3c7.9-19.2,8.8-40.5,2.5-60.3c-18.4,9.6-32.8,25.3-40.7,44.5l-0.8,2l-38.1,78.1l39.9,19.6
		L392.6,82.4z"/>
	<path class="st1" d="M354.5,222v54.7c0,20.7-7.3,40.8-20.7,56.7c-13.3-15.9-20.7-35.9-20.7-56.7V222l0-45.2h37.2L354.5,222z"/>
	<path class="st1" d="M312,221.5l-38.7,38.7c-14.7,14.7-34,23.7-54.7,25.4c1.8-20.7,10.8-40,25.4-54.7l38.7-38.7l29.2-25.1
		l25.6,26.8L312,221.5z"/>
	<path class="st1" d="M384.9,192.3l38.7,38.7c14.7,14.7,23.7,34,25.4,54.7c-20.7-1.8-40-10.8-54.7-25.4l-38.7-38.7l-39.3-37.1
		l31.2-28.9L384.9,192.3z"/>
	<path class="st1" d="M385.4,191.1l54.7,0c20.7,0,40.8-7.4,56.6-20.7c-15.9-13.3-35.9-20.6-56.7-20.6l-54.7,0l-47.9,0l0,41.3
		L385.4,191.1z"/>
	<path class="st1" d="M384.9,148.6l38.7-38.7c14.7-14.7,23.7-34,25.4-54.7C428.4,57,409,66,394.4,80.7l-38.7,38.7l-26.5,32.7
		l25.4,18.3L384.9,148.6z"/>
	<path class="st0" d="M313.2,66.7l-1-2.3c-7.9-19.1-22.4-34.9-40.8-44.4c-6.3,19.8-5.3,41.1,2.6,60.2l0.8,2l38.8,81.9l33.9-18
		L313.2,66.7z"/>
	<path class="st1" d="M313.2,118.8V64.1c0-20.7,7.3-40.8,20.7-56.7c13.3,15.9,20.7,35.9,20.7,56.7v54.7v45.2h-40.4L313.2,118.8z"/>
	<path class="st0" d="M245.9,111.7l-2.3-1c-19.2-7.9-40.5-8.8-60.3-2.5c9.6,18.4,25.3,32.8,44.5,40.7l2,0.8l79.9,38.2l15.6-39.4
		L245.9,111.7z"/>
	<path class="st1" d="M282.8,148.6l-38.7-38.7c-14.7-14.7-23.7-34-25.4-54.7c20.7,1.8,40,10.8,54.7,25.4l38.7,38.7l33.3,32.1
		l-26.2,26.2L282.8,148.6z"/>
	<g>
		<path class="st1" d="M282.3,191.1h-54.7c-20.7,0-40.8-7.3-56.7-20.7c15.9-13.3,35.9-20.7,56.7-20.7h54.7h42.1v43L282.3,191.1z"/>
	</g>
	<g>
		<path class="st2" d="M333.8,114.9c30.7,0,55.6,24.9,55.6,55.5S364.5,226,333.8,226s-55.5-24.9-55.5-55.6S303.2,114.9,333.8,114.9z
			"/>
	</g>
	<path class="st3" d="M306.1,170.4c0-25.9,17.7-47.6,41.6-53.8c-4.4-1.1-9.1-1.8-13.9-1.8c-30.7,0-55.5,24.9-55.5,55.5
		s24.9,55.6,55.5,55.6c4.8,0,9.5-0.6,13.9-1.8C323.8,218,306.1,196.3,306.1,170.4z"/>
	<path class="st4" d="M188.1,469.2l24.6,10.8c13.6,6,29.3,5.8,44-0.4c-5.3-15-15.8-26.7-29.4-32.7l-24.6-10.8
		c-8.9-3.9-18.7-5.2-28.6-3.9l-14.7,2c-1.7,0.2-2.8,2.9-1.9,4.3l8.5,12.2C171.6,458.9,179.3,465.3,188.1,469.2L188.1,469.2z"/>
	<path class="st4" d="M345.4,460.4l-32.7,14.4c-18.1,7.9-38.1,9.7-56,4.9c8.5-16.4,23.3-30,41.4-38l32.7-14.4
		c11.8-5.2,24.4-7.8,36.9-7.5l18.5,0.3c2.1,0,3.3,2.7,1.9,4.3l-12.3,13.9C367.6,447.6,357.1,455.2,345.4,460.4L345.4,460.4z"/>
	<g>
		<path d="M501.6,164.7c-11.5-9.7-25-16.4-39.5-19.8c12-8.7,22-20.1,28.9-33.4c1-2,1.1-4.3,0.3-6.3c-0.8-2-2.6-3.6-4.7-4.3
			c-14.2-4.5-29.3-5.6-43.9-3.2c7.7-12.6,12.5-26.9,13.8-41.8c0.2-2.2-0.6-4.4-2.2-5.9c-1.6-1.6-3.7-2.4-5.9-2.2
			c-14.9,1.3-29.3,6.1-41.9,13.9c2.4-14.6,1.3-29.7-3.2-44c-0.7-2.1-2.2-3.8-4.3-4.7c-2-0.8-4.4-0.7-6.3,0.3
			C379.4,20.1,368,30,359.4,41.9c-3.4-14.4-10.2-27.9-19.8-39.3C338.1,1,336.1,0,333.8,0s-4.3,1-5.7,2.7
			c-10.3,12.3-17.3,26.9-20.5,42.4c-1.8-0.4-3.7-0.1-5.4,0.9c-3.5,2.1-4.7,6.8-2.5,10.3c2.2,3.6,4,7.2,5.6,10.9l0.4,0.9v34.3
			L281.2,78l-0.3-0.6c-6-14.5-7.6-30.5-4.7-45.8c1.3,0.9,2.6,1.8,3.8,2.8c3.3,2.5,8,1.9,10.5-1.4c2.5-3.3,1.9-8-1.4-10.5
			c-4.5-3.5-9.3-6.5-14.3-9.1c-2-1-4.3-1.1-6.3-0.3c-2,0.8-3.6,2.6-4.3,4.7c-4.5,14.2-5.6,29.3-3.2,43.9
			c-12.6-7.7-26.9-12.5-41.8-13.8c-2.2-0.2-4.4,0.6-5.9,2.2c-1.6,1.6-2.4,3.7-2.2,5.9c1.3,14.9,6.1,29.3,13.9,41.9
			c-14.6-2.3-29.7-1.3-44,3.3c-2.1,0.7-3.8,2.2-4.7,4.3c-0.8,2-0.7,4.4,0.3,6.3c6.9,13.3,16.8,24.6,28.7,33.3
			c-14.4,3.4-27.9,10.2-39.3,19.8c-1.7,1.4-2.7,3.5-2.7,5.7s1,4.3,2.7,5.7c11.5,9.7,25,16.4,39.5,19.8c-12,8.7-22,20.1-28.9,33.4
			c-1,2-1.1,4.3-0.3,6.3c0.8,2,2.6,3.6,4.7,4.3c9.4,3,19.1,4.4,28.8,4.4c5,0,10.1-0.4,15.1-1.2c-7.7,12.6-12.5,26.9-13.8,41.8
			c-0.2,2.2,0.6,4.4,2.2,5.9c1.4,1.4,3.3,2.2,5.3,2.2c0.2,0,0.4,0,0.6,0c14.9-1.3,29.3-6.1,41.9-13.9c-2.4,14.6-1.3,29.7,3.3,44
			c0.7,2.1,2.2,3.8,4.3,4.7c0.9,0.4,1.9,0.6,2.9,0.6c1.2,0,2.4-0.3,3.5-0.8c13.3-6.9,24.6-16.8,33.3-28.7c2,8.2,5,16.2,9.1,23.6
			l-44.5,54.1c-8,9.7-14.1,20.8-18.2,32.5c-8.4-18.1-22.4-33.5-40.4-43.7l-14.2-8c0.1-3.2-0.1-6.5-0.5-9.7c9.2,5.1,19.4,8.2,30,9.1
			c0.2,0,0.4,0,0.6,0c2,0,3.9-0.8,5.3-2.2c1.6-1.6,2.4-3.7,2.2-5.9c-1.2-13.5-5.9-26.4-13.8-37.4c-2.4-3.4-7.1-4.1-10.4-1.7
			c-3.4,2.4-4.1,7.1-1.7,10.4c4.4,6.1,7.6,13,9.4,20.2c-10.5-2.7-20.1-8.1-27.9-15.9l-23-23c1.8-1.2,3.5-2.6,5.1-4.1
			c2.6-2.4,4.9-5.1,7-7.9l0.9,0.9c1.5,1.5,3.4,2.2,5.3,2.2c1.9,0,3.8-0.7,5.3-2.2c2.9-2.9,2.9-7.7,0-10.6l-4.5-4.5
			c1.1-3.4,1.8-7,2.1-10.7c0.4-4.1-2.7-7.7-6.8-8.1c-4.1-0.4-7.7,2.7-8.1,6.8c-1.5,18.2-17.1,32.4-35.3,32.4
			c-19.6,0-35.5-15.9-35.5-35.5s15.9-35.5,35.5-35.5c4.2,0,8.4,0.7,12.3,2.2l0.9,0.4c2.3,0.9,4.9,0.6,7-0.8c2-1.4,3.3-3.7,3.3-6.2
			v-25.8c0-4.1-3.4-7.5-7.5-7.5c-4.1,0-7.5,3.4-7.5,7.5v16c-2.8-0.5-5.6-0.7-8.5-0.7c-2.9,0-5.7,0.3-8.5,0.7v-32.5
			c0-10.9,3-21.6,8.5-30.9c1.3,2.2,2.4,4.4,3.4,6.7c1.7,3.8,6.1,5.5,9.9,3.9c3.8-1.7,5.5-6.1,3.9-9.9c-2.9-6.7-6.8-12.9-11.4-18.5
			c-1.4-1.7-3.5-2.7-5.7-2.7c-2.2,0-4.3,1-5.7,2.7c-6.9,8.2-11.9,17.7-14.8,27.8c-6.6-8.3-14.8-15.1-24.3-20c-2-1-4.3-1.1-6.3-0.3
			c-2,0.8-3.6,2.6-4.3,4.7c-3.2,10.1-4.2,20.8-3,31.2c-9.2-5.1-19.4-8.2-30-9.1c-2.2-0.2-4.4,0.6-5.9,2.2c-1.6,1.6-2.4,3.7-2.2,5.9
			c0.9,10.6,4.1,20.9,9.2,30.1c-10.5-1.2-21.2-0.2-31.4,3c-2.1,0.7-3.8,2.2-4.7,4.3c-0.8,2-0.7,4.4,0.3,6.3
			c4.9,9.4,11.7,17.7,19.9,24.2c-10.1,2.9-19.5,7.9-27.7,14.8c-1.7,1.4-2.7,3.5-2.7,5.7c0,2.2,1,4.3,2.7,5.7
			c8.2,6.9,17.7,11.9,27.8,14.8c-8.3,6.6-15.1,14.8-20,24.3c-1,2-1.1,4.3-0.3,6.3c0.8,2,2.6,3.6,4.7,4.3c7.4,2.3,15.1,3.5,22.8,3.5
			c2.8,0,5.6-0.2,8.4-0.5c-5.1,9.2-8.2,19.4-9.1,30c-0.2,2.2,0.6,4.4,2.2,5.9c1.4,1.4,3.3,2.2,5.3,2.2c0.2,0,0.4,0,0.6,0
			c10.6-0.9,20.9-4.1,30.1-9.2c-1.2,10.5-0.2,21.2,3,31.4c0.7,2.1,2.2,3.8,4.3,4.7c0.9,0.4,1.9,0.6,2.9,0.6c1.2,0,2.4-0.3,3.5-0.8
			c9.4-4.9,17.7-11.7,24.2-19.9c2.9,10.1,7.9,19.5,14.8,27.7c1.4,1.7,3.5,2.7,5.7,2.7c2.2,0,4.3-1,5.7-2.7
			c6.9-8.2,11.9-17.7,14.8-27.8c6.6,8.3,14.8,15.1,24.3,20c1.1,0.6,2.3,0.8,3.4,0.8c1,0,2-0.2,2.9-0.6c2-0.8,3.6-2.6,4.3-4.7
			c0.6-1.8,1.1-3.6,1.5-5.4l8.9,5c25.8,14.5,41.8,42,41.8,71.6v2.8c-5.3-5.4-11.6-9.8-18.6-12.8l-24.6-10.8
			c-10.1-4.4-21.4-6-32.6-4.4l-14.7,2c-3.4,0.5-6.3,2.7-7.8,6.1c-1.5,3.4-1.2,7,0.8,9.9l8.5,12.2c6.5,9.3,15.2,16.6,25.3,21.1
			l24.6,10.8c7.7,3.4,15.8,5,24.1,5c5,0,10-0.6,15-1.8v14.4c0,4.1,3.4,7.5,7.5,7.5c4.1,0,7.5-3.4,7.5-7.5v-15.8
			c4.4,0.7,8.8,1,13.3,1c10.1,0,20.3-1.6,30.1-4.9c3.9-1.3,6-5.6,4.7-9.5c-1.3-3.9-5.6-6-9.5-4.7c-11.1,3.7-22.7,4.9-33.7,3.7
			c8-11,19.2-20,32.4-25.8l32.7-14.4c10.7-4.7,22.4-7.1,33.8-6.9l7.8,0.1l-5.2,5.9c-7.5,8.5-17.2,15.5-27.9,20.2l-10.9,4.8
			c-3.8,1.7-5.5,6.1-3.8,9.9c1.7,3.8,6.1,5.5,9.9,3.8l10.9-4.8c12.7-5.6,24.2-13.9,33.1-24l12.3-13.9c2.6-2.9,3.2-7.1,1.6-10.7
			c-1.6-3.6-5.1-5.9-9-6l-18.5-0.3c-13.5-0.2-27.4,2.6-40.1,8.2l-32.7,14.4c-12,5.3-22.7,12.8-31.3,22v-6.7v-6.3
			c0-21,7.3-41.5,20.7-57.7l41.5-50.5c0.7,0.9,1.4,1.7,2.1,2.6c1.4,1.7,3.5,2.7,5.7,2.7c2.2,0,4.3-1,5.7-2.7
			c10.7-12.7,17.8-28,20.8-44.2c1.3,0,2.5-0.3,3.7-1c3.6-2.1,4.8-6.6,2.8-10.2c-1.7-3-3.2-6.1-4.5-9.1l-0.4-0.9v-34.3l24.5,24.5
			l0.3,0.6c6,14.5,7.6,30.5,4.7,45.8c-1.9-1.3-3.7-2.7-5.5-4.1c-3.2-2.6-7.9-2.1-10.5,1.1c-2.6,3.2-2.1,7.9,1.1,10.5
			c5.1,4.1,10.6,7.8,16.3,10.7c1.1,0.6,2.3,0.8,3.4,0.8c1,0,2-0.2,2.9-0.6c2-0.8,3.6-2.6,4.3-4.7c4.5-14.2,5.5-29.3,3.2-43.9
			c12.6,7.7,26.9,12.5,41.8,13.8c0.2,0,0.4,0,0.6,0c2,0,3.9-0.8,5.3-2.2c1.6-1.6,2.4-3.7,2.2-5.9c-1.3-14.9-6.1-29.3-13.9-41.9
			c5,0.8,10.1,1.2,15.2,1.2c9.7,0,19.5-1.5,28.9-4.5c2.1-0.7,3.8-2.2,4.7-4.3c0.8-2,0.7-4.4-0.3-6.3c-6.9-13.3-16.8-24.6-28.7-33.3
			c14.4-3.4,27.8-10.2,39.3-19.8c1.7-1.4,2.7-3.5,2.7-5.7S503.3,166.1,501.6,164.7L501.6,164.7z M97.9,155.9
			c8.7,6.5,15.5,15.2,19.7,25.3l0.2,0.4v22.1L102,187.9l-0.1-0.2C97.7,177.6,96.4,166.6,97.9,155.9z M89.1,196.2l23,23
			c-4.6,3.3-8.7,7.4-12,12l-23-23c-7.7-7.7-13.2-17.4-15.9-27.9C71.8,183,81.4,188.5,89.1,196.2L89.1,196.2z M36.7,217.1
			c10.7-1.6,21.7-0.2,31.8,4l0.4,0.2l15.6,15.6H62.2l-0.2-0.1C52,232.6,43.2,225.8,36.7,217.1z M28.1,260.3c9.3-5.5,20-8.5,30.9-8.5
			h32.5c-0.5,2.8-0.7,5.6-0.7,8.5c0,2.9,0.3,5.7,0.7,8.5H59.1C48.1,268.8,37.4,265.9,28.1,260.3z M36.8,303.7
			C43.2,295,52,288.2,62.1,284l0.4-0.2h22.1l-15.8,15.8l-0.2,0.1C58.5,303.9,47.5,305.2,36.8,303.7z M89.1,324.5
			c-7.7,7.7-17.4,13.2-27.9,15.9c2.7-10.5,8.1-20.2,15.9-27.9l23-23c3.3,4.6,7.4,8.7,12,12L89.1,324.5z M117.8,339.3l-0.1,0.2
			c-4.2,10.1-11,18.8-19.7,25.3c-1.5-10.7-0.2-21.7,4-31.8l0.2-0.4l15.6-15.6V339.3z M149.7,342.5c0,10.9-3,21.6-8.5,30.9
			c-5.5-9.3-8.5-20-8.5-30.9v-32.5c2.8,0.5,5.6,0.7,8.5,0.7c2.9,0,5.7-0.3,8.5-0.7L149.7,342.5z M184.6,364.8
			c-8.7-6.5-15.5-15.2-19.7-25.3l-0.2-0.4V317l15.8,15.8l0.1,0.2C184.8,343.1,186.1,354.1,184.6,364.8L184.6,364.8z M215.8,473.2
			l-24.6-10.8c-7.6-3.3-14.2-8.8-19.1-15.9l-4-5.8l7-1c8.5-1.2,17,0,24.6,3.3l24.6,10.8c9.6,4.2,17.3,11.7,22.4,21.4
			C236.1,478.1,225.3,477.4,215.8,473.2L215.8,473.2z M472.8,112.8c-8.8,12.9-21.2,23.1-35.7,29.1l-0.9,0.4h-34.3l24.5-24.5l0.6-0.3
			C441.5,111.5,457.4,109.9,472.8,112.8L472.8,112.8z M399.7,85.9c11.1-11.1,25.2-18.7,40.5-21.9c-3.2,15.3-10.8,29.4-21.9,40.5
			l-31.6,31.6c-4.8-7.4-11.2-13.8-18.6-18.6L399.7,85.9z M362,67.8l0.3-0.6c6-14.5,16.2-26.9,29-35.7c2.9,15.3,1.3,31.3-4.7,45.8
			l-0.4,1L362,102.4L362,67.8L362,67.8z M320.7,64.1c0-15.7,4.6-31.1,13.2-44.1c8.6,13.1,13.2,28.4,13.2,44.1v44.6
			c-4.3-0.9-8.7-1.4-13.2-1.4s-8.9,0.5-13.2,1.4V64.1z M268,85.9l31.6,31.6c-7.4,4.8-13.8,11.2-18.6,18.6l-31.6-31.6
			c-11.1-11.1-18.7-25.2-21.9-40.5C242.8,67.2,256.9,74.8,268,85.9L268,85.9z M194.9,112.9c15.3-2.9,31.3-1.3,45.8,4.7l1,0.4
			l24.2,24.2h-34.6l-0.6-0.3C216.1,136,203.7,125.8,194.9,112.9z M183.4,170.4c13.1-8.6,28.4-13.2,44.1-13.2h44.6
			c-0.9,4.3-1.4,8.7-1.4,13.2s0.5,8.9,1.4,13.2h-44.6C211.9,183.6,196.5,179,183.4,170.4L183.4,170.4z M194.9,228
			c8.8-12.9,21.2-23.1,35.7-29.1l0.9-0.4h34.3L241.4,223l-0.6,0.3C226.2,229.3,210.3,230.9,194.9,228L194.9,228z M268,254.9
			c-11.1,11.1-25.2,18.7-40.5,21.9c3.2-15.3,10.8-29.4,21.9-40.5l31.6-31.6c4.8,7.4,11.2,13.8,18.6,18.6L268,254.9z M305.7,273
			l-0.3,0.7c-6,14.5-16.2,26.9-29,35.7c-2.9-15.3-1.3-31.3,4.7-45.8l0.4-1l24.2-24.2L305.7,273L305.7,273z M347,276.7
			c0,15.7-4.6,31.1-13.2,44.1c-8.6-13.1-13.2-28.4-13.2-44.1v-44.6c4.3,0.9,8.7,1.4,13.2,1.4c4.5,0,8.9-0.5,13.2-1.4L347,276.7z
			 M333.8,218.5c-26.5,0-48.1-21.6-48.1-48.1c0-26.5,21.6-48.1,48.1-48.1s48.1,21.6,48.1,48.1C381.9,196.9,360.3,218.5,333.8,218.5z
			 M399.7,254.9l-31.6-31.6c7.4-4.8,13.8-11.2,18.6-18.6l31.6,31.6c11.1,11.1,18.7,25.2,21.9,40.5
			C424.9,273.6,410.8,266,399.7,254.9L399.7,254.9z M472.8,227.9c-15.3,2.9-31.3,1.3-45.8-4.7l-1-0.4l-24.2-24.2h34.6l0.6,0.3
			C451.6,204.8,464,215,472.8,227.9L472.8,227.9z M440.1,183.6h-44.6c0.9-4.3,1.4-8.7,1.4-13.2c0-4.5-0.5-8.9-1.4-13.2h44.6
			c15.7,0,31.1,4.6,44.1,13.2C471.2,179,455.8,183.6,440.1,183.6z"/>
	</g>
</g>
</svg>
