<?xml version="1.0" encoding="utf-8"?>
<!-- Generator: Adobe Illustrator 24.0.1, SVG Export Plug-In . SVG Version: 6.00 Build 0)  -->
<svg version="1.1" id="Warstwa_1" xmlns="http://www.w3.org/2000/svg" xmlns:xlink="http://www.w3.org/1999/xlink" x="0px" y="0px"
	 viewBox="0 0 512 1536" style="enable-background:new 0 0 512 1536;" xml:space="preserve">
<style type="text/css">
	.st0{fill:#EFEDEF;}
	.st1{fill:#F9F7F8;}
	.st2{fill:#FEE45A;}
	.st3{fill:#FED402;}
	.st4{fill:#80D261;}
	.st5{fill:#F47C7C;}
	.st6{fill:#EE6161;}
	.st7{fill:#E94444;}
	.st8{fill:#ADE194;}
	.st9{fill:#82AEE3;}
	.st10{fill:#FEDF30;}
</style>
<g>
	<g>
		<path class="st0" d="M187.3,204.2l0.7-1.7c5.9-14.3,6.6-30.3,1.9-45.1c-13.8,7.2-24.6,18.9-30.5,33.3l-0.6,1.5l-35.3,64.3l33.7,17
			L187.3,204.2z"/>
		<path class="st0" d="M127.8,192.4l-0.7-1.7c-5.9-14.3-16.8-26.1-30.5-33.2c-4.7,14.8-4,30.8,2,45.1l0.6,1.5l24.3,62.8l30.1-11.7
			L127.8,192.4z"/>
		<path class="st0" d="M77.5,226.1l-1.7-0.7c-14.3-5.9-30.3-6.6-45.1-1.9c7.2,13.8,18.9,24.6,33.3,30.5l1.5,0.6l65.7,26l13.5-26
			L77.5,226.1z"/>
		<path class="st0" d="M209.1,314l1.7,0.7c14.3,5.9,30.3,6.6,45.1,1.9c-7.2-13.8-18.9-24.6-33.3-30.5l-1.5-0.6l-65.5-29.1
			l-15.9,25.9L209.1,314z"/>
		<path class="st0" d="M187.4,336.1l0.6,1.5c5.9,14.3,6.6,30.3,2,45.1c-13.8-7.1-24.6-18.9-30.5-33.2l-0.7-1.7L131.1,278l29.8-14.4
			L187.4,336.1z"/>
		<path class="st0" d="M127.8,347.9l-0.6,1.5c-5.9,14.3-16.7,26.1-30.5,33.3c-4.7-14.8-4-30.8,1.9-45.1l0.7-1.7l21.7-61.1l28.8,5.7
			L127.8,347.9z"/>
		<path class="st0" d="M77.3,314.2l-1.5,0.6c-14.3,5.9-30.3,6.6-45.1,2c7.1-13.8,18.9-24.6,33.2-30.5l1.7-0.7l53-22.6l16.6,28.5
			L77.3,314.2z"/>
		<path class="st0" d="M220.9,254.6l1.7-0.7c14.3-5.9,26.1-16.8,33.2-30.5c-14.8-4.7-30.8-4-45.1,2l-1.5,0.6
			c-1.2-0.3-81.1,30.5-81.1,30.5l11.6,27.9L220.9,254.6z"/>
	</g>
	<g>
		<path class="st1" d="M181.9,285.5h40.9c15.5,0,30.5-5.5,42.4-15.5c-11.9-10-26.9-15.5-42.4-15.5h-40.9h-53.7v30.9H181.9z"/>
		<path class="st1" d="M181.5,286.4l28.9,28.9c11,11,17.7,25.5,19,40.9c-15.5-1.3-29.9-8.1-40.9-19l-28.9-28.9l-31.5-33.4l23.7-22.9
			L181.5,286.4z"/>
		<path class="st1" d="M158.8,308.6v40.9c0,15.5-5.5,30.5-15.5,42.4c-10-11.9-15.5-26.9-15.5-42.4v-40.9v-45.1h30.9V308.6z"/>
		<path class="st1" d="M126.9,308.3L98,337.2c-11,11-25.5,17.7-40.9,19c1.3-15.5,8.1-29.9,19-40.9l28.9-28.9l32.5-30l21.2,18.4
			L126.9,308.3z"/>
		<path class="st1" d="M104.7,285.5H63.8c-15.5,0-30.5-5.5-42.4-15.5c11.9-10,26.9-15.5,42.4-15.5h40.9h39.9v30.9H104.7z"/>
		<path class="st1" d="M126.9,231.8L98,202.9c-11-11-25.5-17.7-40.9-19c1.3,15.5,8.1,29.9,19,40.9l28.9,28.9l28.1,22.9l18.7-22.8
			L126.9,231.8z"/>
		<path class="st1" d="M158.8,231.5v-40.9c0-15.5-5.5-30.5-15.5-42.4c-10,11.9-15.5,26.9-15.5,42.4v40.9l0.3,42h29L158.8,231.5z"/>
		<path class="st1" d="M159.7,231.8l28.9-28.9c11-11,25.5-17.7,40.9-19c-1.3,15.5-8.1,29.9-19,40.9l-28.9,28.9l-41.7,34l-14.6-26.8
			L159.7,231.8z"/>
	</g>
	<g>
		<circle class="st2" cx="143.3" cy="270" r="41.6"/>
	</g>
	<path class="st3" d="M123.4,270.6c0-19.6,13.6-36,31.8-40.4c-3.8-1.1-7.7-1.7-11.9-1.7c-23,0-41.6,18.6-41.6,41.6
		s18.6,41.6,41.6,41.6c3.4,0,6.7-0.4,9.8-1.2C135.9,305.4,123.4,289.4,123.4,270.6z"/>
	<path class="st0" d="M245.6,240.7l-2,0.8c-19.1,7.9-40.5,8.9-60.2,2.6c9.5-18.4,25.3-32.9,44.4-40.8l2.3-1l79.6-35.3l22.7,43.7
		L245.6,240.7z"/>
	<path class="st0" d="M313.2,285.8l-0.8,2c-7.9,19.2-22.4,34.9-40.7,44.5c-6.3-19.8-5.4-41.1,2.5-60.3l1-2.3l35.8-83.4l40.5,13
		L313.2,285.8z"/>
	<path class="st0" d="M392.8,270l0.8,2c7.9,19.1,8.9,40.5,2.6,60.2c-18.4-9.5-32.9-25.3-40.8-44.4l-1-2.3l-42.5-92l46.3-18.1
		L392.8,270z"/>
	<path class="st0" d="M437.9,202.4l2,0.8c19.2,7.9,34.9,22.4,44.5,40.7c-19.8,6.3-41.1,5.4-60.3-2.5l-2.3-1l-86.2-41.3l24.5-32.4
		L437.9,202.4z"/>
	<path class="st0" d="M437.6,161.1l2.3-1c19.1-7.9,34.9-22.4,44.4-40.8c-19.8-6.3-41.1-5.3-60.2,2.6l-2,0.8l-97.7,28.5l11.3,40.2
		L437.6,161.1z"/>
	<path class="st0" d="M392.6,93.8l1-2.3c7.9-19.2,8.8-40.5,2.5-60.3c-18.4,9.6-32.8,25.3-40.7,44.5l-0.8,2l-38.1,78.1l39.9,19.6
		L392.6,93.8z"/>
	<path class="st1" d="M354.5,233.3V288c0,20.7-7.3,40.8-20.7,56.7c-13.3-15.9-20.7-35.9-20.7-56.7v-54.7l0-45.2h37.2L354.5,233.3z"
		/>
	<path class="st1" d="M312,232.8l-38.7,38.7c-14.7,14.7-34,23.7-54.7,25.4c1.8-20.7,10.8-40,25.4-54.7l38.7-38.7l29.2-25.1
		l25.6,26.8L312,232.8z"/>
	<path class="st1" d="M384.9,203.6l38.7,38.7c14.7,14.7,23.7,34,25.4,54.7c-20.7-1.8-40-10.8-54.7-25.4l-38.7-38.7l-39.3-37.1
		l31.2-28.9L384.9,203.6z"/>
	<path class="st1" d="M385.4,202.4l54.7,0c20.7,0,40.8-7.4,56.6-20.7c-15.9-13.3-35.9-20.6-56.7-20.6l-54.7,0l-47.9,0l0,41.3
		L385.4,202.4z"/>
	<path class="st1" d="M384.9,159.9l38.7-38.7c14.7-14.7,23.7-34,25.4-54.7c-20.7,1.8-40,10.8-54.7,25.4l-38.7,38.7l-26.5,32.7
		l25.4,18.3L384.9,159.9z"/>
	<path class="st0" d="M313.2,78l-1-2.3c-7.9-19.1-22.4-34.9-40.8-44.4c-6.3,19.8-5.3,41.1,2.6,60.2l0.8,2l38.8,81.9l33.9-18
		L313.2,78z"/>
	<path class="st1" d="M313.2,130.2V75.5c0-20.7,7.3-40.8,20.7-56.7c13.3,15.9,20.7,35.9,20.7,56.7v54.7v45.2h-40.4L313.2,130.2z"/>
	<path class="st0" d="M245.9,123l-2.3-1c-19.2-7.9-40.5-8.8-60.3-2.5c9.6,18.4,25.3,32.8,44.5,40.7l2,0.8l79.9,38.2l15.6-39.4
		L245.9,123z"/>
	<path class="st1" d="M282.8,159.9l-38.7-38.7c-14.7-14.7-23.7-34-25.4-54.7c20.7,1.8,40,10.8,54.7,25.4l38.7,38.7l33.3,32.1
		L319.1,189L282.8,159.9z"/>
	<g>
		<path class="st1" d="M282.3,202.4h-54.7c-20.7,0-40.8-7.3-56.7-20.7c15.9-13.3,35.9-20.7,56.7-20.7h54.7h42.1v43L282.3,202.4z"/>
	</g>
	<g>
		<path class="st2" d="M333.8,126.2c30.7,0,55.6,24.9,55.6,55.5s-24.9,55.6-55.6,55.6s-55.5-24.9-55.5-55.6S303.2,126.2,333.8,126.2
			z"/>
	</g>
	<path class="st3" d="M306.1,181.7c0-25.9,17.7-47.6,41.6-53.8c-4.4-1.1-9.1-1.8-13.9-1.8c-30.7,0-55.5,24.9-55.5,55.5
		s24.9,55.6,55.5,55.6c4.8,0,9.5-0.6,13.9-1.8C323.8,229.4,306.1,207.6,306.1,181.7z"/>
	<path class="st4" d="M188.1,480.5l24.6,10.8c13.6,6,29.3,5.8,44-0.4c-5.3-15-15.8-26.7-29.4-32.7l-24.6-10.8
		c-8.9-3.9-18.7-5.2-28.6-3.9l-14.7,2c-1.7,0.2-2.8,2.9-1.9,4.3l8.5,12.2C171.6,470.3,179.2,476.6,188.1,480.5L188.1,480.5z"/>
	<path class="st4" d="M345.4,471.7l-32.7,14.4c-18.1,7.9-38.1,9.7-56,4.9c8.5-16.4,23.3-30,41.4-38l32.7-14.4
		c11.8-5.2,24.4-7.8,36.9-7.5l18.5,0.3c2.1,0,3.3,2.7,1.9,4.3l-12.3,13.9C367.6,458.9,357.1,466.5,345.4,471.7L345.4,471.7z"/>
	<g>
		<path d="M501.6,176c-11.5-9.7-25-16.4-39.5-19.8c12-8.7,22-20.1,28.9-33.4c1-2,1.1-4.3,0.3-6.3c-0.8-2-2.6-3.6-4.7-4.3
			c-14.2-4.5-29.3-5.6-43.9-3.2c7.7-12.6,12.5-26.9,13.8-41.8c0.2-2.2-0.6-4.4-2.2-5.9c-1.6-1.6-3.7-2.4-5.9-2.2
			c-14.9,1.3-29.3,6.1-41.9,13.9c2.4-14.6,1.3-29.7-3.2-44c-0.7-2.1-2.2-3.8-4.3-4.7c-2-0.8-4.4-0.7-6.3,0.3
			c-13.3,6.9-24.6,16.8-33.3,28.7c-3.4-14.4-10.2-27.9-19.8-39.3c-1.4-1.7-3.5-2.7-5.7-2.7c-2.2,0-4.3,1-5.7,2.7
			c-10.3,12.3-17.3,26.9-20.5,42.4c-1.8-0.4-3.7-0.1-5.4,0.9c-3.5,2.1-4.7,6.8-2.5,10.3c2.2,3.6,4,7.2,5.6,10.9l0.4,0.9v34.3
			l-24.5-24.5l-0.3-0.6c-6-14.5-7.6-30.5-4.7-45.8c1.3,0.9,2.6,1.8,3.8,2.8c3.3,2.5,8,1.9,10.5-1.4c2.5-3.3,1.9-8-1.4-10.5
			c-4.5-3.5-9.3-6.5-14.3-9.1c-2-1-4.3-1.1-6.3-0.3c-2,0.8-3.6,2.6-4.3,4.7c-4.5,14.2-5.6,29.3-3.2,43.9
			c-12.6-7.7-26.9-12.5-41.8-13.8c-2.2-0.2-4.4,0.6-5.9,2.2c-1.6,1.6-2.4,3.7-2.2,5.9c1.3,14.9,6.1,29.3,13.9,41.9
			c-14.6-2.3-29.7-1.3-44,3.3c-2.1,0.7-3.8,2.2-4.7,4.3c-0.8,2-0.7,4.4,0.3,6.3c6.9,13.3,16.8,24.6,28.7,33.3
			c-14.4,3.4-27.9,10.2-39.3,19.8c-1.7,1.4-2.7,3.5-2.7,5.7c0,2.2,1,4.3,2.7,5.7c11.5,9.7,25,16.4,39.5,19.8
			c-12,8.7-22,20.1-28.9,33.4c-1,2-1.1,4.3-0.3,6.3c0.8,2,2.6,3.6,4.7,4.3c9.4,3,19.1,4.4,28.8,4.4c5,0,10.1-0.4,15.1-1.2
			c-7.7,12.6-12.5,26.9-13.8,41.8c-0.2,2.2,0.6,4.4,2.2,5.9c1.4,1.4,3.3,2.2,5.3,2.2c0.2,0,0.4,0,0.6,0c14.9-1.3,29.3-6.1,41.9-13.9
			c-2.4,14.6-1.3,29.7,3.3,44c0.7,2.1,2.2,3.8,4.3,4.7c0.9,0.4,1.9,0.6,2.9,0.6c1.2,0,2.4-0.3,3.5-0.8c13.3-6.9,24.6-16.8,33.3-28.7
			c2,8.2,5,16.2,9.1,23.6l-44.5,54.1c-8,9.7-14.1,20.8-18.2,32.5c-8.4-18.1-22.4-33.5-40.4-43.7l-14.2-8c0.1-3.2-0.1-6.5-0.5-9.7
			c9.2,5.1,19.4,8.2,30,9.1c0.2,0,0.4,0,0.6,0c2,0,3.9-0.8,5.3-2.2c1.6-1.6,2.4-3.7,2.2-5.9c-1.2-13.5-5.9-26.4-13.8-37.4
			c-2.4-3.4-7.1-4.1-10.4-1.7c-3.4,2.4-4.1,7.1-1.7,10.4c4.4,6.1,7.6,13,9.4,20.2c-10.5-2.7-20.1-8.1-27.9-15.9l-23-23
			c1.8-1.2,3.5-2.6,5.1-4.1c2.6-2.4,4.9-5.1,7-7.9l0.9,0.9c1.5,1.5,3.4,2.2,5.3,2.2c1.9,0,3.8-0.7,5.3-2.2c2.9-2.9,2.9-7.7,0-10.6
			l-4.5-4.5c1.1-3.4,1.8-7,2.1-10.7c0.4-4.1-2.7-7.7-6.8-8.1c-4.1-0.4-7.7,2.7-8.1,6.8c-1.5,18.2-17.1,32.4-35.3,32.4
			c-19.6,0-35.5-15.9-35.5-35.5s15.9-35.5,35.5-35.5c4.2,0,8.4,0.7,12.3,2.2l0.9,0.4c2.3,0.9,4.9,0.6,7-0.8c2-1.4,3.3-3.7,3.3-6.2
			v-25.8c0-4.1-3.4-7.5-7.5-7.5s-7.5,3.4-7.5,7.5v16c-2.8-0.5-5.6-0.7-8.5-0.7c-2.9,0-5.7,0.3-8.5,0.7v-32.5c0-10.9,3-21.6,8.5-30.9
			c1.3,2.2,2.4,4.4,3.4,6.7c1.7,3.8,6.1,5.5,9.9,3.9c3.8-1.7,5.5-6.1,3.9-9.9c-2.9-6.7-6.8-12.9-11.4-18.5c-1.4-1.7-3.5-2.7-5.7-2.7
			s-4.3,1-5.7,2.7c-6.9,8.2-11.9,17.7-14.8,27.8c-6.6-8.3-14.8-15.1-24.3-20c-2-1-4.3-1.1-6.3-0.3c-2,0.8-3.6,2.6-4.3,4.7
			c-3.2,10.1-4.2,20.8-3,31.2c-9.2-5.1-19.4-8.2-30-9.1c-2.2-0.2-4.4,0.6-5.9,2.2c-1.6,1.6-2.4,3.7-2.2,5.9
			c0.9,10.6,4.1,20.9,9.2,30.1c-10.5-1.2-21.2-0.2-31.4,3c-2.1,0.7-3.8,2.2-4.7,4.3c-0.8,2-0.7,4.4,0.3,6.3
			c4.9,9.4,11.7,17.7,19.9,24.2c-10.1,2.9-19.5,7.9-27.7,14.8c-1.7,1.4-2.7,3.5-2.7,5.7c0,2.2,1,4.3,2.7,5.7
			c8.2,6.9,17.7,11.9,27.8,14.8c-8.3,6.6-15.1,14.8-20,24.3c-1,2-1.1,4.3-0.3,6.3c0.8,2,2.6,3.6,4.7,4.3c7.4,2.3,15.1,3.5,22.8,3.5
			c2.8,0,5.6-0.2,8.4-0.5c-5.1,9.2-8.2,19.4-9.1,30c-0.2,2.2,0.6,4.4,2.2,5.9c1.4,1.4,3.3,2.2,5.3,2.2c0.2,0,0.4,0,0.6,0
			c10.6-0.9,20.9-4.1,30.1-9.2c-1.2,10.5-0.2,21.2,3,31.4c0.7,2.1,2.2,3.8,4.3,4.7c0.9,0.4,1.9,0.6,2.9,0.6c1.2,0,2.4-0.3,3.5-0.8
			c9.4-4.9,17.7-11.7,24.2-19.9c2.9,10.1,7.9,19.5,14.8,27.7c1.4,1.7,3.5,2.7,5.7,2.7s4.3-1,5.7-2.7c6.9-8.2,11.9-17.7,14.8-27.8
			c6.6,8.3,14.8,15.1,24.3,20c1.1,0.6,2.3,0.8,3.4,0.8c1,0,2-0.2,2.9-0.6c2-0.8,3.6-2.6,4.3-4.7c0.6-1.8,1.1-3.6,1.5-5.4l8.9,5
			c25.8,14.5,41.8,42,41.8,71.6v2.8c-5.3-5.4-11.6-9.8-18.6-12.8l-24.6-10.8c-10.1-4.4-21.4-6-32.6-4.4l-14.7,2
			c-3.4,0.5-6.3,2.7-7.8,6.1c-1.5,3.4-1.2,7,0.8,9.9l8.5,12.2c6.5,9.3,15.2,16.6,25.3,21.1l24.6,10.8c7.7,3.4,15.8,5,24.1,5
			c5,0,10-0.6,15-1.8v14.4c0,4.1,3.4,7.5,7.5,7.5c4.1,0,7.5-3.4,7.5-7.5v-15.8c4.4,0.7,8.8,1,13.3,1c10.1,0,20.3-1.6,30.1-4.9
			c3.9-1.3,6-5.6,4.7-9.5c-1.3-3.9-5.6-6-9.5-4.7c-11.1,3.7-22.7,4.9-33.7,3.7c8-11,19.2-20,32.4-25.8l32.7-14.4
			c10.7-4.7,22.4-7.1,33.8-6.9l7.8,0.1l-5.2,5.9c-7.5,8.5-17.2,15.5-27.9,20.2l-10.9,4.8c-3.8,1.7-5.5,6.1-3.8,9.9
			c1.7,3.8,6.1,5.5,9.9,3.8l10.9-4.8c12.7-5.6,24.2-13.9,33.1-24l12.3-13.9c2.6-2.9,3.2-7.1,1.6-10.7c-1.6-3.6-5.1-5.9-9-6
			l-18.5-0.3c-13.5-0.2-27.4,2.6-40.1,8.2l-32.7,14.4c-12,5.3-22.7,12.8-31.3,22v-6.7v-6.3c0-21,7.3-41.5,20.7-57.7l41.5-50.5
			c0.7,0.9,1.4,1.7,2.1,2.6c1.4,1.7,3.5,2.7,5.7,2.7c2.2,0,4.3-1,5.7-2.7c10.7-12.7,17.8-28,20.8-44.2c1.3,0,2.5-0.3,3.7-1
			c3.6-2.1,4.8-6.6,2.8-10.2c-1.7-3-3.2-6.1-4.5-9.1L362,284v-34.3l24.5,24.5l0.3,0.6c6,14.5,7.6,30.5,4.7,45.8
			c-1.9-1.3-3.7-2.7-5.5-4.1c-3.2-2.6-7.9-2.1-10.5,1.1c-2.6,3.2-2.1,7.9,1.1,10.5c5.1,4.1,10.6,7.8,16.3,10.7
			c1.1,0.6,2.3,0.8,3.4,0.8c1,0,2-0.2,2.9-0.6c2-0.8,3.6-2.6,4.3-4.7c4.5-14.2,5.5-29.3,3.2-43.9c12.6,7.7,26.9,12.5,41.8,13.8
			c0.2,0,0.4,0,0.6,0c2,0,3.9-0.8,5.3-2.2c1.6-1.6,2.4-3.7,2.2-5.9c-1.3-14.9-6.1-29.3-13.9-41.9c5,0.8,10.1,1.2,15.2,1.2
			c9.7,0,19.5-1.5,28.9-4.5c2.1-0.7,3.8-2.2,4.7-4.3c0.8-2,0.7-4.4-0.3-6.3c-6.9-13.3-16.8-24.6-28.7-33.3
			c14.4-3.4,27.8-10.2,39.3-19.8c1.7-1.4,2.7-3.5,2.7-5.7C504.2,179.5,503.3,177.4,501.6,176L501.6,176z M97.9,167.2
			c8.7,6.5,15.5,15.2,19.7,25.3l0.2,0.4V215L102,199.2l-0.1-0.2C97.7,188.9,96.4,177.9,97.9,167.2z M89.1,207.5l23,23
			c-4.6,3.3-8.7,7.4-12,12l-23-23c-7.7-7.7-13.2-17.4-15.9-27.9C71.8,194.4,81.4,199.8,89.1,207.5L89.1,207.5z M36.7,228.4
			c10.7-1.6,21.7-0.2,31.8,4l0.4,0.2l15.6,15.6H62.2l-0.2-0.1C52,243.9,43.2,237.1,36.7,228.4z M28.1,271.7c9.3-5.5,20-8.5,30.9-8.5
			h32.5c-0.5,2.8-0.7,5.6-0.7,8.5c0,2.9,0.3,5.7,0.7,8.5H59.1C48.1,280.2,37.4,277.2,28.1,271.7z M36.8,315
			c6.5-8.7,15.2-15.5,25.3-19.7l0.4-0.2h22.1l-15.8,15.8l-0.2,0.1C58.5,315.2,47.5,316.6,36.8,315z M89.1,335.8
			c-7.7,7.7-17.4,13.2-27.9,15.9c2.7-10.5,8.1-20.2,15.9-27.9l23-23c3.3,4.6,7.4,8.7,12,12L89.1,335.8z M117.8,350.7l-0.1,0.2
			c-4.2,10.1-11,18.8-19.7,25.3c-1.5-10.7-0.2-21.7,4-31.8l0.2-0.4l15.6-15.6V350.7z M149.7,353.9c0,10.9-3,21.6-8.5,30.9
			c-5.5-9.3-8.5-20-8.5-30.9v-32.5c2.8,0.5,5.6,0.7,8.5,0.7c2.9,0,5.7-0.3,8.5-0.7L149.7,353.9z M184.6,376.1
			c-8.7-6.5-15.5-15.2-19.7-25.3l-0.2-0.4v-22.1l15.8,15.8l0.1,0.2C184.8,354.4,186.1,365.4,184.6,376.1L184.6,376.1z M215.8,484.5
			l-24.6-10.8c-7.6-3.3-14.2-8.8-19.1-15.9l-4-5.8l7-1c8.5-1.2,17,0,24.6,3.3l24.6,10.8c9.6,4.2,17.3,11.7,22.4,21.4
			C236.1,489.4,225.3,488.7,215.8,484.5L215.8,484.5z M472.7,124.1c-8.8,12.9-21.2,23.1-35.7,29.1l-0.9,0.4h-34.3l24.5-24.5l0.6-0.3
			C441.5,122.8,457.4,121.2,472.7,124.1L472.7,124.1z M399.7,97.3c11.1-11.1,25.2-18.7,40.5-21.9c-3.2,15.3-10.8,29.4-21.9,40.5
			l-31.6,31.6c-4.8-7.4-11.2-13.8-18.6-18.6L399.7,97.3z M362,79.2l0.3-0.6c6-14.5,16.2-26.9,29-35.7c2.9,15.3,1.3,31.3-4.7,45.8
			l-0.4,1L362,113.8L362,79.2L362,79.2z M320.7,75.5c0-15.7,4.6-31.1,13.2-44.1c8.6,13.1,13.2,28.4,13.2,44.1v44.6
			c-4.3-0.9-8.7-1.4-13.2-1.4s-8.9,0.5-13.2,1.4V75.5z M268,97.3l31.6,31.6c-7.4,4.8-13.8,11.2-18.6,18.6l-31.6-31.6
			c-11.1-11.1-18.7-25.2-21.9-40.5C242.8,78.6,256.9,86.2,268,97.3L268,97.3z M194.9,124.3c15.3-2.9,31.3-1.3,45.8,4.7l1,0.4
			l24.2,24.2h-34.6l-0.6-0.3C216.1,147.3,203.7,137.2,194.9,124.3z M183.4,181.7c13.1-8.6,28.4-13.2,44.1-13.2h44.6
			c-0.9,4.3-1.4,8.7-1.4,13.2c0,4.5,0.5,8.9,1.4,13.2h-44.6C211.9,194.9,196.5,190.3,183.4,181.7L183.4,181.7z M194.9,239.4
			c8.8-12.9,21.2-23.1,35.7-29.1l0.9-0.4h34.3l-24.5,24.5l-0.6,0.3C226.2,240.7,210.3,242.3,194.9,239.4L194.9,239.4z M268,266.2
			c-11.1,11.1-25.2,18.7-40.5,21.9c3.2-15.3,10.8-29.4,21.9-40.5L281,216c4.8,7.4,11.2,13.8,18.6,18.6L268,266.2z M305.7,284.3
			l-0.3,0.7c-6,14.5-16.2,26.9-29,35.7c-2.9-15.3-1.3-31.3,4.7-45.8l0.4-1l24.2-24.2L305.7,284.3L305.7,284.3z M347,288
			c0,15.7-4.6,31.1-13.2,44.1c-8.6-13.1-13.2-28.4-13.2-44.1v-44.6c4.3,0.9,8.7,1.4,13.2,1.4c4.5,0,8.9-0.5,13.2-1.4L347,288z
			 M333.8,229.8c-26.5,0-48.1-21.6-48.1-48.1c0-26.5,21.6-48.1,48.1-48.1c26.5,0,48.1,21.6,48.1,48.1
			C381.9,208.2,360.3,229.8,333.8,229.8z M399.7,266.2l-31.6-31.6c7.4-4.8,13.8-11.2,18.6-18.6l31.6,31.6
			c11.1,11.1,18.7,25.2,21.9,40.5C424.9,284.9,410.8,277.3,399.7,266.2L399.7,266.2z M472.8,239.2c-15.3,2.9-31.3,1.3-45.8-4.7
			l-1-0.4l-24.2-24.2h34.6l0.6,0.3C451.6,216.2,464,226.3,472.8,239.2L472.8,239.2z M440.1,194.9h-44.6c0.9-4.3,1.4-8.7,1.4-13.2
			c0-4.5-0.5-8.9-1.4-13.2h44.6c15.7,0,31.1,4.6,44.1,13.2C471.2,190.3,455.8,194.9,440.1,194.9z"/>
	</g>
</g>
<g>
	<path class="st5" d="M477.6,801l9.9,7.7c9.3,7.2,13.7,19,11.5,30.5c-2.7,14.3-15,24.8-29.5,25.3c-40.3,1.5-80-10-113.2-32.8
		l-12-8.2l-6.7-40.9l82.5-27.8L477.6,801z"/>
	<g>
		<path class="st4" d="M273.5,912.1c-6.7,7.3-3.1,16.7,6.7,17.7c8.4,0.8,18.8,0.6,28.8-3.3c10-3.8,18-10.5,23.7-16.7
			c6.7-7.3,3.1-16.7-6.7-17.7c-8.4-0.8-18.8-0.6-28.8,3.3C287.1,899.2,279.2,905.9,273.5,912.1z"/>
		<path class="st4" d="M265.8,948.6c8.2,8.9,3.8,20.6-8.3,21.8c-10.3,1-23.1,0.7-35.4-4c-12.3-4.7-22.1-12.9-29.1-20.5
			c-8.2-8.9-3.8-20.6,8.3-21.8c10.3-1,23.1-0.7,35.4,4C249,932.8,258.8,941,265.8,948.6L265.8,948.6z"/>
		<path class="st4" d="M265.1,841.4c7.2,5.7,5.3,14.9-3.6,17.3c-7.6,2-17.2,3.3-27,1.2c-9.8-2-18.1-7-24.2-11.9
			c-7.2-5.7-5.3-14.9,3.6-17.3c7.6-2,17.2-3.3,27-1.2C250.7,831.6,259,836.6,265.1,841.4z"/>
	</g>
	<path class="st5" d="M227.7,717l11.1-14.9c30.6-41.4,47.1-91.5,47.1-142.9c0-18.6-12.8-34.7-30.9-38.9
		c-14.6-3.4-29.9,1.8-39.5,13.3l-10.2,12.2l-47.8,60.6l60.9,119.8L227.7,717z"/>
	<path class="st5" d="M208.3,733.4l-17,7.4c-47.2,20.5-99.7,25.4-149.8,13.9c-18.1-4.2-31-20.3-31-38.9c0-15,8.4-28.7,21.8-35.5
		l14.2-7.2l67.9-36.4l86.3,46.1l17.7,43.3L208.3,733.4z"/>
	<path class="st6" d="M207.5,718.6c-47.2,20.5-99.7,25.4-149.8,13.9c-18.1-4.2-31-20.3-31-38.9c0-3.8,0.5-7.5,1.5-11
		c-11.1,7.3-17.9,19.8-17.9,33.2c0,18.6,12.8,34.7,31,38.9c50.1,11.5,102.7,6.6,149.8-13.9l17-7.4l10-7.3l-4.2-10.3L207.5,718.6z"/>
	<g id="XMLID_252_">
		<g>
			<path class="st6" d="M229.3,564.9c16.9,37.6,19.9,80,8.3,119.6l-8.2,28.1c-3.8,12.9-15.5,21.8-28.9,22l-29.2,0.5
				c-41.2,0.7-81.4-13.4-113.1-39.7c-7.9-6.5-12-15.9-12-25.5c0-6.8,2.1-13.6,6.4-19.5l13.3-18.1c5.7-7.8,8.8-17.3,8.8-27v-30.6
				c0-17.8,17-30.7,34.1-25.9l29.3,8.1c9.4,2.6,19.4,2.2,28.5-1.3l20.9-8C203.8,541.4,222.2,549,229.3,564.9L229.3,564.9z"/>
		</g>
	</g>
	<g>
		<path class="st7" d="M97,695.3c-7.9-6.5-12-15.9-12-25.5c0-6.8,2.1-13.6,6.4-19.5l13.3-18.1c5.7-7.8,8.8-17.3,8.8-27v-30.6
			c0-9,4.3-16.7,10.9-21.6l-15.5-4.3c-17.1-4.8-34.1,8.1-34.1,25.9v30.6c0,9.7-3.1,19.2-8.8,27l-13.3,18.1
			c-4.3,5.9-6.4,12.7-6.4,19.5c0,9.5,4.1,19,12,25.5c31.8,26.3,71.9,40.4,113.1,39.7l24.3-0.4C159.6,732.2,125,718.5,97,695.3
			L97,695.3z"/>
	</g>
	<path class="st5" d="M374.2,679.6l-6.1-10.9c-5.7-10.3-16.7-16.5-28.4-16c-14.5,0.5-26.8,11-29.5,25.3
		c-7.6,39.6-2.3,80.6,15.1,116.9l6.3,13.1l30.9,1.7l35.2-70.2L374.2,679.6z"/>
	<path class="st6" d="M343.4,800.2c-17.4-36.4-22.7-77.3-15.1-116.9c2.7-14.3,15-24.8,29.5-25.3c0.2,0,0.4,0,0.6,0
		c-5.4-3.7-11.9-5.6-18.7-5.4c-14.5,0.5-26.8,11-29.5,25.3c-7.6,39.6-2.3,80.6,15.1,116.9l6.3,13.1l15.9,0.9L343.4,800.2z"/>
	<path class="st6" d="M408,696.2l-20.4-12.6c-11.7-7.2-26.9-4.1-34.8,7.1c-18.6,26.4-27.1,58.6-24,90.8l2.2,22.8
		c1,10.5,8.7,19,19,21.2l22.4,4.7c31.6,6.6,64.6,1.7,92.9-13.9c12-6.6,16.8-21.4,10.9-33.8l-10.3-21.7c-1.5-3.1-1.9-6.5-1.3-9.9
		l5.7-29.9c2.6-13.7-8.5-26.1-22.4-24.9l-30.2,2.5C414.3,698.8,410.9,698,408,696.2L408,696.2z"/>
	<g>
		<path class="st7" d="M352.8,713.8c7.9-11.2,23.1-14.3,34.8-7.1l20.4,12.6c2.9,1.8,6.3,2.6,9.7,2.3l30.2-2.5
			c9-0.7,16.9,4.2,20.5,11.6l1.8-9.6c2.6-13.7-8.5-26.1-22.4-24.9l-30.2,2.5c-3.4,0.3-6.8-0.5-9.7-2.3l-20.4-12.6
			c-11.7-7.2-26.9-4.1-34.8,7.1c-18.3,26.1-26.8,57.7-24.1,89.4C330.7,756.4,339,733.5,352.8,713.8L352.8,713.8z"/>
	</g>
	<g>
		<path d="M492.1,802.7l-6.2-4.8c0.8-6.2-0.1-12.6-2.9-18.6l-10.3-21.7c-0.8-1.6-1-3.5-0.7-5.2l5.7-29.9c1.7-8.8-0.8-17.8-6.8-24.5
			c-6-6.7-14.6-10.1-23.6-9.4l-30.2,2.5c-1.8,0.2-3.6-0.3-5.2-1.2l-20.4-12.6c-4-2.4-8.2-4-12.6-4.6l-3.9-7
			c-6.7-12-19.1-19.8-32.4-20.4c-19.1-0.9-36.2,12.6-39.8,31.4c-1.4,7.4-2.4,15-3,22.6c-0.2,2.3,0.7,4.5,2.3,6.1
			c1.4,1.4,3.4,2.1,5.3,2.1c0.3,0,0.5,0,0.8,0c4.1-0.5,7.1-4.1,6.6-8.2c0.5-6.6,1.4-13.2,2.7-19.7c2.2-11.7,12.5-19.8,24.4-19.2
			c8.1,0.4,15.8,5.2,19.9,12.7l0.8,1.4c-6.3,2.3-11.9,6.4-16,12.2c-15.6,22.2-24.5,48.4-25.8,75.2c-2.6-9.5-4.5-19.3-5.5-29.3
			c0-0.4,0-0.8,0-1.3c-0.4-4.1-4.2-7.1-8.3-6.7c-2,0.2-3.8,1.2-5.1,2.8c-1.3,1.5-1.9,3.6-1.7,5.6c2.3,22.8,8.4,44.7,18.3,65.3
			l6,12.6c0.5,1.6,1.1,3.2,1.8,4.7c-19.6,16.1-36.2,35.6-48.9,57.4v-11.6c0-3.8-0.2-7.6-0.5-11.4c0-1.1-0.1-2.1-0.3-3.2
			c-1.9-19.6-7.7-38.8-17-56.1l-32.1-60.2c2.6-2.7,4.8-5.8,6.5-9.3l10.7-14.4c31.3-42.4,48.5-94.7,48.5-147.4
			c0-22.2-15.1-41.2-36.8-46.2c-17.5-4-35.4,2-46.9,15.8l-7.8,9.3c-5.7-0.4-11.5,0.4-17.1,2.6l-20.9,8c-7.7,2.9-15.9,3.3-23.8,1.1
			l-29.3-8.1c-10.4-2.9-21.4-0.8-30,5.7c-8.6,6.6-13.6,16.5-13.6,27.4v30.6c0,8.2-2.6,16-7.4,22.5l-13.3,18.1
			c-5,6.8-7.6,14.8-7.8,22.7l-10,5.1c-16,8.1-25.9,24.3-25.9,42.2c0,22.2,15.1,41.2,36.8,46.2c18.1,4.2,36.7,6.2,55.2,6.2
			c34,0,68.1-6.9,99.3-20.5l16.4-7.2c1.6-0.5,3.1-1,4.6-1.7l31.2,58.6c5.1,9.7,9.1,19.9,11.8,30.5c-5.2-2.8-10.5-4.7-15.9-5.8
			c-9.4-2-19.6-1.5-30.4,1.3c-7,1.8-12,6.7-13.3,13.1c-1.3,6.4,1.3,12.8,6.9,17.3c8.7,6.9,17.9,11.4,27.3,13.3
			c3.9,0.8,7.8,1.2,12,1.2c5.6,0,11.5-0.8,17.5-2.3V935c-7.3-6.2-15-10.9-23.2-14c-11.5-4.4-24.6-5.9-38.8-4.4
			c-8.6,0.9-15.3,5.6-18,12.8c-2.7,7.2-0.9,15.2,5,21.5c4.6,5,9.6,9.4,14.7,13.1c3.4,2.4,8.1,1.6,10.5-1.7c2.4-3.4,1.6-8.1-1.7-10.5
			c-4.3-3.1-8.5-6.8-12.4-11.1c-1.9-2.1-2.6-4.3-2-6c0.7-1.7,2.7-2.9,5.5-3.2c11.9-1.2,22.7,0,32,3.5c9.3,3.5,18.2,9.8,26.3,18.6
			c1.4,1.5,2.1,3.1,2.2,4.5v0.3c0,0.4-0.1,0.8-0.2,1.2c-0.7,1.7-2.7,2.9-5.5,3.2c-6.8,0.7-13.4,0.6-19.5-0.3
			c-4.1-0.6-7.9,2.2-8.5,6.3c-0.6,4.1,2.2,7.9,6.3,8.5c4.2,0.6,8.6,0.9,13,0.9c3.3,0,6.7-0.2,10.1-0.5c1.5-0.1,2.9-0.4,4.2-0.8v39.1
			c0,4.1,3.4,7.5,7.5,7.5s7.5-3.4,7.5-7.5v-57c0-0.5,0-1,0-1.6V937c0.6,0.1,1.3,0.2,2,0.3c2.9,0.3,5.7,0.4,8.5,0.4
			c8.6,0,16.5-1.4,23.8-4.1c9.6-3.6,18.5-9.9,26.6-18.6c5.1-5.5,6.7-12.6,4.3-19c-2.4-6.3-8.3-10.6-15.8-11.3
			c-11.8-1.2-22.6,0.1-32.2,3.7c-3.9,1.5-7.6,3.4-11.3,5.7c12.4-25.8,30.3-48.7,52.6-66.9c1.4,1.1,2.9,2,4.5,2.8l11.6,7.9
			c32.4,22.2,71.5,34.2,110.8,34.2c2.3,0,4.6,0,6.9-0.1c18.2-0.7,33.2-13.6,36.6-31.4C509.1,826.2,503.6,811.7,492.1,802.7
			L492.1,802.7z M58.7,654.7L72,636.6c6.7-9.2,10.3-20,10.3-31.4v-30.6c0-6.1,2.8-11.7,7.7-15.4s11-4.9,16.9-3.2l29.3,8.1
			c11,3.1,22.5,2.5,33.2-1.5l20.9-8c12.6-4.8,26.8,1.1,32.4,13.4c1.3,2.8,2.5,5.8,3.7,8.9c1.5,3.9,5.8,5.8,9.7,4.3
			c3.9-1.5,5.8-5.8,4.3-9.7c-1.3-3.4-2.6-6.6-4-9.7c-3.9-8.7-10.5-15.3-18.4-19.4l3.4-4.1c7.9-9.4,20.1-13.5,32.1-10.8
			c14.8,3.4,25.1,16.4,25.1,31.5c0,40.1-10.7,80.1-30.4,115c5-23,5.4-47,1.3-70.2c-0.7-4.1-4.6-6.8-8.7-6.1
			c-4.1,0.7-6.8,4.6-6.1,8.7c4.5,25.1,3.1,51.3-4,75.8l-2.5,8.5l-25.7-55.1c-1.8-3.8-6.2-5.4-10-3.6c-3.8,1.8-5.4,6.2-3.6,10
			l32.9,70.4c-2.7,6.8-8.4,11.7-15.2,13.6c-0.1,0-0.2,0.1-0.3,0.1c-0.8,0.2-1.6,0.4-2.5,0.5l-54.1-54.6c-2.9-2.9-7.7-3-10.6,0
			c-2.9,2.9-3,7.7,0,10.6l44.2,44.6l-11.6,0.2c-0.9,0-1.7,0-2.6,0c-38.5,0-75.9-13.5-105.6-38C52.6,680.9,50.7,665.6,58.7,654.7
			L58.7,654.7z M43.1,747.4c-14.8-3.4-25.1-16.4-25.1-31.5c0-12.2,6.8-23.3,17.7-28.8l5.7-2.9c2.4,6.4,6.5,12.3,12.1,16.9
			c31.5,26.1,71.1,40.7,111.9,41.5C125.9,754.9,83.3,756.7,43.1,747.4L43.1,747.4z M259.6,851.4c-8.5,2.2-16.4,2.6-23.5,1.1
			c-7.1-1.5-14.2-5-21.1-10.4c-1.2-1-1.7-1.9-1.5-2.5s0.9-1.2,2.4-1.6c5.1-1.3,10-2,14.6-2c3.1,0,6,0.3,8.9,0.9
			c7.1,1.5,14.2,5,21.1,10.4c0.8,0.6,1.3,1.3,1.5,1.8c0,0.2,0,0.5,0.1,0.7C261.8,850.4,261,851.1,259.6,851.4L259.6,851.4z
			 M299.8,902.4c5.5-2.1,11.7-3.2,18.4-3.2c2.3,0,4.6,0.1,7,0.4c1.7,0.2,3,0.8,3.3,1.7c0.3,0.9-0.2,2.2-1.3,3.4
			c-6.4,7-13.5,12-20.8,14.8c-7.4,2.8-15.9,3.7-25.4,2.8c-1.7-0.2-3-0.8-3.3-1.7c-0.3-0.9,0.2-2.2,1.3-3.4
			C285.4,910.2,292.5,905.2,299.8,902.4L299.8,902.4z M359,695.1c3.6-5.1,9.3-7.8,15.1-7.8c3.3,0,6.6,0.9,9.6,2.7l20.4,12.6
			c0,0,0,0,0,0c4.3,2.7,9.2,3.9,14.3,3.4l30.2-2.5c4.3-0.4,8.3,1.3,11.2,4.4c2.9,3.2,4,7.4,3.2,11.6l-5.7,29.9
			c-0.9,4.9-0.3,10,1.9,14.5l10.3,21.7c4.2,8.8,0.8,19.3-7.8,24c-26.7,14.7-57.9,19.3-87.8,13.1l-5.2-1.1l37.4-25.6
			c3.4-2.3,4.3-7,2-10.4c-2.3-3.4-7-4.3-10.4-2l-49,33.5c-0.3-0.1-0.6-0.2-0.9-0.4c-0.1,0-0.1-0.1-0.2-0.1c-2.1-1-3.9-2.5-5.4-4.2
			c0,0-0.1-0.1-0.1-0.1c-0.1-0.1-0.1-0.2-0.2-0.2c-1.2-1.6-2.2-3.3-2.8-5.3c0-0.4-0.1-0.8-0.2-1.2l35.2-48.7
			c2.4-3.4,1.7-8.1-1.7-10.5c-3.4-2.4-8.1-1.7-10.5,1.7l-25.4,35.1l-0.3-2.6C333.4,750.5,341.4,720,359,695.1L359,695.1z
			 M491.6,837.8c-2.1,10.9-11.3,18.8-22.4,19.2c-28.8,1-57.8-5-83.8-17.2c4.9,0.5,9.7,0.7,14.6,0.7c23.9,0,47.7-6,68.9-17.7
			c4.7-2.6,8.5-6.1,11.4-10.3l2.6,2C489.9,820.1,493.3,829,491.6,837.8L491.6,837.8z"/>
	</g>
</g>
<g>
	<path class="st4" d="M310.6,1467.3l-29.1,12.9c-16.1,7.1-34.2,8.1-50.6,2.6c7.1-15.9,19.9-28.6,36-35.7l29.1-12.9
		c10.5-4.6,21.9-6.7,33.2-6l16.8,1.1c1.9,0.1,3.1,2.7,1.9,4.3l-10.5,13.2C330.2,1455.6,321,1462.7,310.6,1467.3L310.6,1467.3z"/>
	<path class="st4" d="M141.2,1452.4l24.7,10.9c13.6,6,29.4,5.9,44.1-0.3c-5.3-15.1-15.8-26.8-29.4-32.8l-24.7-10.9
		c-8.9-3.9-18.7-5.3-28.7-4l-14.8,2c-1.7,0.2-2.9,2.9-1.9,4.3l8.5,12.3C124.7,1442.1,132.3,1448.5,141.2,1452.4L141.2,1452.4z"/>
	<path class="st8" d="M233.9,1525.1c1.2,0,2.2-1,2.2-2.2v-61.7c0-30.9,9-60.6,26-86.1l19.8-29.7c0-0.1,0.1-0.1,0.1-0.2l11-21.4
		c0.2-0.3,0.2-0.6,0.2-1v-16.7c0-0.9-0.5-1.7-1.3-2l-13.8-5.7c-1-0.4-2.1-0.1-2.6,0.8l-31.1,47.8l-7,10.5
		c-20.5,30.6-31.3,66.4-31.3,103.6v61.7c0,1.2,1,2.2,2.2,2.2L233.9,1525.1L233.9,1525.1z"/>
	<g id="XMLID_251_">
		<g>
			<path class="st9" d="M256,1242c32.1,0,58.2-26,58.2-58.2c0-32.1-26-58.2-58.2-58.2s-58.2,26-58.2,58.2c0,15.7,6.2,30,16.4,40.5
				C224.8,1235.2,239.6,1242,256,1242L256,1242z M414,1146.7c2.8,11.9,4.3,24.4,4.3,37.1c0,12.8-1.5,25.2-4.3,37.2
				c-0.8,3.3-3.8,5.7-7.2,5.7h-47.4l33.5,33.5c2.4,2.4,2.9,6.2,1.1,9.1c-13.2,21.3-31.2,39.3-52.5,52.5c-2.9,1.8-6.7,1.3-9.1-1.1
				l-33.5-33.5v47.4c0,3.4-2.3,6.4-5.7,7.2c-11.9,2.8-24.4,4.3-37.1,4.3s-25.2-1.5-37.1-4.3c-3.3-0.8-5.7-3.8-5.7-7.2v-29.4
				c0-6.6-8-9.9-12.7-5.2l-20.8,20.8c-2.4,2.4-6.2,2.9-9.1,1.1c-21.3-13.2-39.3-31.2-52.5-52.5c-1.8-2.9-1.3-6.7,1.1-9.1l33.5-33.5
				h-47.4c-3.4,0-6.4-2.3-7.2-5.7c-2.8-11.9-4.3-24.4-4.3-37.2c0-12.8,1.5-25.2,4.3-37.1c0.8-3.3,3.8-5.7,7.2-5.7h29.4
				c6.6,0,9.9-8,5.3-12.7l-20.8-20.8c-2.4-2.4-2.9-6.2-1.1-9.1c13.2-21.3,31.2-39.3,52.5-52.5c2.9-1.8,6.7-1.3,9.1,1.1l20.8,20.8
				c4.7,4.7,12.7,1.4,12.7-5.3v-29.4c0-3.4,2.3-6.4,5.7-7.2c11.9-2.8,24.4-4.3,37.1-4.3c12.8,0,25.2,1.5,37.1,4.3
				c3.3,0.8,5.7,3.8,5.7,7.2v47.4l33.5-33.5c2.4-2.4,6.2-2.9,9.1-1.1c21.3,13.2,39.3,31.2,52.5,52.5c1.8,2.9,1.3,6.7-1.1,9.1
				l-20.8,20.8c-4.7,4.7-1.4,12.7,5.3,12.7h29.4C410.2,1141,413.2,1143.3,414,1146.7L414,1146.7z"/>
		</g>
	</g>
	<path class="st10" d="M314.2,1183.8c0,32.1-26,58.2-58.2,58.2c-16.4,0-31.2-6.8-41.8-17.7c-10.2-10.5-16.4-24.7-16.4-40.5
		c0-32.1,26-58.2,58.2-58.2S314.2,1151.7,314.2,1183.8z"/>
	<path class="st3" d="M243.2,1224.3c-10.2-10.5-16.4-24.7-16.4-40.5c0-27.1,18.6-49.9,43.7-56.4c-4.6-1.2-9.5-1.8-14.5-1.8
		c-32.1,0-58.2,26-58.2,58.2c0,15.7,6.2,30,16.4,40.5c10.6,10.9,25.4,17.7,41.8,17.7c5,0,9.8-0.6,14.5-1.8
		C259.9,1237.5,250.5,1231.9,243.2,1224.3L243.2,1224.3z"/>
	<g>
		<path d="M421.3,1144.9c-1.6-6.8-7.6-11.5-14.5-11.5l-29.2,0l20.7-20.7c4.9-4.9,5.8-12.5,2.2-18.4c-13.8-22.2-32.8-41.2-54.9-54.9
			c-5.9-3.7-13.5-2.8-18.4,2.2l-20.7,20.7v-2.5v-26.7c0-7-4.7-12.9-11.5-14.5c-25.4-5.9-52.4-5.9-77.7,0
			c-6.8,1.6-11.5,7.6-11.5,14.5l0,29.2l-20.7-20.7c-4.9-4.9-12.5-5.8-18.4-2.2c-22.2,13.8-41.2,32.8-54.9,54.9
			c-3.7,5.9-2.8,13.5,2.2,18.4l20.7,20.7h-16.3h-12.9c-7,0-12.9,4.7-14.5,11.5c-3,12.7-4.5,25.8-4.5,38.9c0,13.1,1.5,26.2,4.5,38.9
			c1.6,6.8,7.6,11.5,14.5,11.5h29.2l-20.7,20.7c-4.9,4.9-5.8,12.5-2.2,18.4c13.8,22.2,32.8,41.2,54.9,54.9
			c5.9,3.7,13.5,2.8,18.4-2.2l20.7-20.7v17.2v12c0,7,4.7,12.9,11.5,14.5c4.6,1.1,9.2,2,13.9,2.6c-6.8,9.9-12.6,20.4-17.4,31.4
			c-1.6,3.8,0.1,8.2,3.9,9.9c1,0.4,2,0.6,3,0.6c2.9,0,5.7-1.7,6.9-4.5c4.4-10.1,9.8-19.9,16.1-29l4.6-6.7c2.6,0.1,5.2,0.2,7.8,0.2
			c3.5,0,7-0.1,10.5-0.3l-10.6,15.4c-17.9,26-27.3,56.4-27.3,87.9v62.1c0,4.1,3.4,7.5,7.5,7.5c4.1,0,7.5-3.4,7.5-7.5v-29.1
			c4.8,0.9,9.7,1.4,14.6,1.4c8.9,0,17.7-1.5,26.2-4.5c3.9-1.4,6-5.7,4.6-9.6s-5.7-6-9.6-4.6c-10.3,3.6-21.3,4.5-31.8,2.7
			c6.6-10.5,16.3-18.8,27.9-23.9l29.1-12.9c9.3-4.1,19.6-6,29.7-5.3l7.5,0.5l-4.7,5.8c-6.3,7.9-14.6,14.3-23.9,18.4l-4.9,2.2
			c-3.8,1.7-5.5,6.1-3.8,9.9c1.7,3.8,6.1,5.5,9.9,3.8l4.9-2.2c11.5-5.1,21.8-13,29.6-22.8l10.5-13.2c2.3-2.9,2.8-6.9,1.2-10.4
			c-1.6-3.5-4.8-5.8-8.5-6.1l-16.8-1.1c-12.5-0.8-25.2,1.5-36.7,6.6l-29.1,12.9c-9.9,4.4-18.6,10.6-25.7,18.3
			c0.2-28.1,8.7-55.2,24.7-78.4l18.1-26.3c2.8-0.5,5.7-1.1,8.5-1.7c6.8-1.6,11.5-7.6,11.5-14.5v-29.2L327,1326
			c4.9,4.9,12.5,5.8,18.4,2.2c22.2-13.8,41.2-32.8,54.9-54.9c3.7-5.9,2.8-13.5-2.2-18.4l-20.7-20.7h16.9h12.3
			c7,0,12.9-4.7,14.5-11.5c3-12.7,4.5-25.8,4.5-38.9C425.8,1170.7,424.2,1157.6,421.3,1144.9L421.3,1144.9z M406.7,1219.1h-12.3h-35
			h-15.2c-4.1,0-7.5,3.4-7.5,7.5s3.4,7.5,7.5,7.5h12.1l31.2,31.2c-2.3,3.7-4.8,7.4-7.5,10.9l-16.2-16.2c-2.9-2.9-7.7-2.9-10.6,0
			c-2.9,2.9-2.9,7.7,0,10.6l17.2,17.2c-3.4,3.7-7,7.3-10.7,10.7l-20.5-20.5c-2.9-2.9-7.7-2.9-10.6,0c-2.9,2.9-2.9,7.7,0,10.6
			l19.4,19.4c-3.4,2.5-6.9,4.9-10.4,7.1l-33.4-33.4c-2.1-2.1-5.4-2.8-8.2-1.6c-2.8,1.2-4.6,3.9-4.6,6.9v47.3
			c-4.1,1-8.2,1.7-12.4,2.3v-22.5c0-4.1-3.4-7.5-7.5-7.5c-4.1,0-7.5,3.4-7.5,7.5v24c-5,0.3-10.1,0.3-15.2,0v-28.6
			c0-4.1-3.4-7.5-7.5-7.5s-7.5,3.4-7.5,7.5v27.2c-4.4-0.6-8.8-1.4-13.1-2.5v-11.9v-17.4v-25.2c0-4.1-3.4-7.5-7.5-7.5
			c-4.1,0-7.5,3.4-7.5,7.5v10.3c-3.9,0-7.6,1.5-10.5,4.4l-20.8,20.8c-3.5-2.2-6.9-4.5-10.3-7l16.8-16.8c2.9-2.9,2.9-7.7,0-10.6
			c-2.9-2.9-7.7-2.9-10.6,0l-17.8,17.8c-3.8-3.4-7.3-7-10.8-10.7l21.1-21.1c2.9-2.9,2.9-7.7,0-10.6c-2.9-2.9-7.7-2.9-10.6,0
			l-20.1,20.1c-2.7-3.6-5.2-7.3-7.6-11.1l33.4-33.4c2.1-2.1,2.8-5.4,1.6-8.2c-1.2-2.8-3.9-4.6-6.9-4.6h-47.3
			c-1.1-4.7-2-9.5-2.6-14.4h22c4.1,0,7.5-3.4,7.5-7.5s-3.4-7.5-7.5-7.5h-23.3c-0.1-2-0.1-3.9-0.1-5.9c0-3.1,0.1-6.2,0.3-9.3h27.7
			c4.1,0,7.5-3.4,7.5-7.5s-3.4-7.5-7.5-7.5h-26c0.6-3.7,1.3-7.4,2.1-11h12.8h16.5h27.9c4.1,0,7.5-3.4,7.5-7.5c0-4.1-3.4-7.5-7.5-7.5
			h-13c0-3.9-1.5-7.6-4.4-10.5l-20.8-20.8c2.2-3.6,4.6-7,7.1-10.4l15.8,15.8c1.5,1.5,3.4,2.2,5.3,2.2c1.9,0,3.8-0.7,5.3-2.2
			c2.9-2.9,2.9-7.7,0-10.6l-16.9-16.9c3.4-3.8,7-7.3,10.7-10.7l20.1,20.1c1.5,1.5,3.4,2.2,5.3,2.2s3.8-0.7,5.3-2.2
			c2.9-2.9,2.9-7.7,0-10.6l-19.1-19.1c3.6-2.7,7.2-5.2,11-7.5l20.8,20.8c2.8,2.8,6.6,4.4,10.5,4.4v4.1c0,4.1,3.4,7.5,7.5,7.5
			s7.5-3.4,7.5-7.5v-19.1v-10.1v-19.3c4.5-1,9-1.9,13.6-2.5v21.8c0,4.1,3.4,7.5,7.5,7.5s7.5-3.4,7.5-7.5v-23.2
			c5.1-0.2,10.1-0.2,15.2,0.1v27.7c0,4.1,3.4,7.5,7.5,7.5c4.1,0,7.5-3.4,7.5-7.5v-26.1c4,0.6,8,1.4,11.9,2.3v26.6v20.7v15.2
			c0,4.1,3.4,7.5,7.5,7.5c4.1,0,7.5-3.4,7.5-7.5v-12.1l31.2-31.2c4,2.5,7.9,5.2,11.6,8l-15.9,15.9c-2.9,2.9-2.9,7.7,0,10.6
			c1.5,1.5,3.4,2.2,5.3,2.2s3.8-0.7,5.3-2.2l16.8-16.8c3.7,3.4,7.3,7,10.7,10.8l-20,20c-2.9,2.9-2.9,7.7,0,10.6
			c1.5,1.5,3.4,2.2,5.3,2.2c1.9,0,3.8-0.7,5.3-2.2l18.9-18.9c2.3,3.2,4.5,6.4,6.6,9.7l-20.8,20.8c-4.3,4.3-5.6,10.7-3.2,16.3
			c2.3,5.6,7.7,9.2,13.8,9.2h29.4c1,4.1,1.8,8.3,2.4,12.5h-23.5c-4.1,0-7.5,3.4-7.5,7.5s3.4,7.5,7.5,7.5h25c0.1,2.6,0.2,5.2,0.2,7.8
			c0,2.5-0.1,4.9-0.2,7.4H381c-4.1,0-7.5,3.4-7.5,7.5s3.4,7.5,7.5,7.5h28.1C408.5,1210.6,407.7,1214.9,406.7,1219.1z"/>
		<path d="M328.8,1176.6h-7.5c-1.4-12.6-6.4-24.1-13.9-33.6l5.8-5.8c2.9-2.9,2.9-7.7,0-10.6c-2.9-2.9-7.7-2.9-10.6,0l-5.8,5.8
			c-9.4-7.4-20.8-12.4-33.3-13.8v-7.2c0-4.1-3.4-7.5-7.5-7.5s-7.5,3.4-7.5,7.5v7.2c-12.4,1.4-23.8,6.3-33.1,13.7l-5.3-5.3
			c-2.9-2.9-7.7-2.9-10.6,0c-2.9,2.9-2.9,7.7,0,10.6l5.3,5.3c-7.4,9.2-12.4,20.5-13.9,32.9h-7.5c-4.1,0-7.5,3.4-7.5,7.5
			s3.4,7.5,7.5,7.5h7.4c1.3,12.4,6.1,23.8,13.3,33.2l-5.2,5.2c-2.9,2.9-2.9,7.7,0,10.6c2.9,2.9,7.7,2.9,10.6,0l5-5
			c9.3,7.6,20.6,12.7,33.1,14.3v7.9c0,4.1,3.4,7.5,7.5,7.5c4.1,0,7.5-3.4,7.5-7.5v-7.7c12.6-1.3,24.2-6.1,33.7-13.5l5.7,5.7
			c2.9,2.9,7.7,2.9,10.6,0c2.9-2.9,2.9-7.7,0-10.6l-5.6-5.6c7.6-9.4,12.7-20.9,14.2-33.5h7.5c4.1,0,7.5-3.4,7.5-7.5
			S332.9,1176.6,328.8,1176.6L328.8,1176.6z M256,1234.5c-27.9,0-50.7-22.7-50.7-50.7s22.7-50.7,50.7-50.7s50.7,22.7,50.7,50.7
			S283.9,1234.5,256,1234.5L256,1234.5z"/>
		<path d="M212.3,1409.1c-4-0.9-8.1,1.6-9,5.6c-1.6,7-2.8,14.2-3.6,21.4c-5.7-6.4-12.7-11.6-20.6-15.1l-24.7-10.9
			c-10.1-4.5-21.4-6.1-32.7-4.5l-14.8,2c-3.4,0.5-6.3,2.7-7.8,6.1c-1.5,3.4-1.2,7.1,0.7,9.9l8.5,12.3c6.5,9.4,15.2,16.7,25.3,21.2
			l24.7,10.9c7.7,3.4,15.9,5.1,24.3,5.1c5.3,0,10.6-0.7,15.9-2v47.5c0,4.1,3.4,7.5,7.5,7.5c4.1,0,7.5-3.4,7.5-7.5v-62.1
			c0-12.9,1.5-25.8,4.3-38.3C218.8,1414.1,216.3,1410.1,212.3,1409.1L212.3,1409.1z M164.4,1454.3l-24.7-10.9
			c-7.6-3.4-14.2-8.9-19.1-16l-4-5.8l7-0.9c8.5-1.1,17.1,0,24.6,3.4l24.7,10.9c9.6,4.2,17.4,11.8,22.4,21.5
			C184.8,1459.2,174,1458.5,164.4,1454.3L164.4,1454.3z"/>
	</g>
</g>
</svg>
