<?xml version="1.0" encoding="utf-8"?>
<!-- Generator: Adobe Illustrator 24.0.1, SVG Export Plug-In . SVG Version: 6.00 Build 0)  -->
<svg version="1.1" id="Warstwa_1" xmlns="http://www.w3.org/2000/svg" xmlns:xlink="http://www.w3.org/1999/xlink" x="0px" y="0px"
	 viewBox="0 0 1536 512" style="enable-background:new 0 0 1536 512;" xml:space="preserve">
<style type="text/css">
	.st0{fill:#EFEDEF;}
	.st1{fill:#F9F7F8;}
	.st2{fill:#FEE45A;}
	.st3{fill:#FED402;}
	.st4{fill:#80D261;}
	.st5{fill:#ADE194;}
	.st6{fill:#82AEE3;}
	.st7{fill:#FEDF30;}
	.st8{fill:#F47C7C;}
	.st9{fill:#EE6161;}
	.st10{fill:#E94444;}
</style>
<g>
	<g>
		<path class="st0" d="M187.4,192.9l0.7-1.7c5.9-14.3,6.6-30.3,1.9-45.1c-13.8,7.2-24.6,18.9-30.5,33.3l-0.6,1.5l-35.3,64.3l33.7,17
			L187.4,192.9z"/>
		<path class="st0" d="M128,181.1l-0.7-1.7c-5.9-14.3-16.8-26.1-30.5-33.2c-4.7,14.8-4,30.8,2,45.1l0.6,1.5l24.3,62.8l30.1-11.7
			L128,181.1z"/>
		<path class="st0" d="M77.6,214.8l-1.7-0.7c-14.3-5.9-30.3-6.6-45.1-1.9c7.2,13.8,18.9,24.6,33.3,30.5l1.5,0.6l65.7,26l13.5-26
			L77.6,214.8z"/>
		<path class="st0" d="M209.3,302.7l1.7,0.7c14.3,5.9,30.3,6.6,45.1,1.9c-7.2-13.8-18.9-24.6-33.3-30.5l-1.5-0.6l-65.5-29.1
			L139.9,271L209.3,302.7z"/>
		<path class="st0" d="M187.6,324.7l0.6,1.5c5.9,14.3,6.6,30.3,2,45.1c-13.8-7.1-24.6-18.9-30.5-33.2l-0.7-1.7l-27.7-69.7l29.8-14.4
			L187.6,324.7z"/>
		<path class="st0" d="M128,336.6l-0.6,1.5c-5.9,14.3-16.7,26.1-30.5,33.3c-4.7-14.8-4-30.8,1.9-45.1l0.7-1.7l21.7-61.1l28.8,5.7
			L128,336.6z"/>
		<path class="st0" d="M77.4,302.9l-1.5,0.6c-14.3,5.9-30.3,6.6-45.1,2c7.1-13.8,18.9-24.6,33.2-30.5l1.7-0.7l53-22.6l16.6,28.5
			L77.4,302.9z"/>
		<path class="st0" d="M221.1,243.2l1.7-0.7c14.3-5.9,26.1-16.8,33.2-30.5c-14.8-4.7-30.8-4-45.1,2l-1.5,0.6
			c-1.2-0.3-81.1,30.5-81.1,30.5l11.6,27.9L221.1,243.2z"/>
	</g>
	<g>
		<path class="st1" d="M182,274.2H223c15.5,0,30.5-5.5,42.4-15.5c-11.9-10-26.9-15.5-42.4-15.5H182h-53.7v30.9H182z"/>
		<path class="st1" d="M181.7,275.1l28.9,28.9c11,11,17.7,25.5,19,40.9c-15.5-1.3-29.9-8.1-40.9-19l-28.9-28.9l-31.5-33.4l23.7-22.9
			L181.7,275.1z"/>
		<path class="st1" d="M158.9,297.3v40.9c0,15.5-5.5,30.5-15.5,42.4c-10-11.9-15.5-26.9-15.5-42.4v-40.9v-45.1h30.9V297.3z"/>
		<path class="st1" d="M127.1,296.9l-28.9,28.9c-11,11-25.5,17.7-40.9,19c1.3-15.5,8.1-29.9,19-40.9l28.9-28.9l32.5-30l21.2,18.4
			L127.1,296.9z"/>
		<path class="st1" d="M104.8,274.2H63.9c-15.5,0-30.5-5.5-42.4-15.5c11.9-10,26.9-15.5,42.4-15.5h40.9h39.9v30.9H104.8z"/>
		<path class="st1" d="M127.1,220.5l-28.9-28.9c-11-11-25.5-17.7-40.9-19c1.3,15.5,8.1,29.9,19,40.9l28.9,28.9l28.1,22.9l18.7-22.8
			L127.1,220.5z"/>
		<path class="st1" d="M158.9,220.1v-40.9c0-15.5-5.5-30.5-15.5-42.4c-10,11.9-15.5,26.9-15.5,42.4v40.9l0.3,42h29L158.9,220.1z"/>
		<path class="st1" d="M159.8,220.5l28.9-28.9c11-11,25.5-17.7,40.9-19c-1.3,15.5-8.1,29.9-19,40.9l-28.9,28.9l-41.7,34l-14.6-26.8
			L159.8,220.5z"/>
	</g>
	<g>
		<circle class="st2" cx="143.4" cy="258.7" r="41.6"/>
	</g>
	<path class="st3" d="M123.5,259.3c0-19.6,13.6-36,31.8-40.4c-3.8-1.1-7.7-1.7-11.9-1.7c-23,0-41.6,18.6-41.6,41.6
		c0,23,18.6,41.6,41.6,41.6c3.4,0,6.7-0.4,9.8-1.2C136.1,294,123.5,278.1,123.5,259.3z"/>
	<path class="st0" d="M245.8,229.4l-2,0.8c-19.1,7.9-40.5,8.9-60.2,2.6c9.5-18.4,25.3-32.9,44.4-40.8l2.3-1l79.6-35.3l22.7,43.7
		L245.8,229.4z"/>
	<path class="st0" d="M313.3,274.5l-0.8,2c-7.9,19.2-22.4,34.9-40.7,44.5c-6.3-19.8-5.4-41.1,2.5-60.3l1-2.3L311,175l40.5,13
		L313.3,274.5z"/>
	<path class="st0" d="M392.9,258.6l0.8,2c7.9,19.1,8.9,40.5,2.6,60.2c-18.4-9.5-32.9-25.3-40.8-44.4l-1-2.3l-42.5-92l46.3-18.1
		L392.9,258.6z"/>
	<path class="st0" d="M438,191.1l2,0.8c19.2,7.9,34.9,22.4,44.5,40.7c-19.8,6.3-41.1,5.4-60.3-2.5l-2.3-1l-86.2-41.3l24.5-32.4
		L438,191.1z"/>
	<path class="st0" d="M437.7,149.7l2.3-1c19.1-7.9,34.9-22.4,44.4-40.8c-19.8-6.3-41.1-5.3-60.2,2.6l-2,0.8l-97.7,28.5l11.3,40.2
		L437.7,149.7z"/>
	<path class="st0" d="M392.7,82.4l1-2.3c7.9-19.2,8.8-40.5,2.5-60.3c-18.4,9.6-32.8,25.3-40.7,44.5l-0.8,2l-38.1,78.1l39.9,19.6
		L392.7,82.4z"/>
	<path class="st1" d="M354.6,222v54.7c0,20.7-7.3,40.8-20.7,56.7c-13.3-15.9-20.7-35.9-20.7-56.7V222l0-45.2h37.2L354.6,222z"/>
	<path class="st1" d="M312.1,221.5l-38.7,38.7c-14.7,14.7-34,23.7-54.7,25.4c1.8-20.7,10.8-40,25.4-54.7l38.7-38.7l29.2-25.1
		l25.6,26.8L312.1,221.5z"/>
	<path class="st1" d="M385,192.3l38.7,38.7c14.7,14.7,23.7,34,25.4,54.7c-20.7-1.8-40-10.8-54.7-25.4l-38.7-38.7l-39.3-37.1
		l31.2-28.9L385,192.3z"/>
	<path class="st1" d="M385.5,191.1l54.7,0c20.7,0,40.8-7.4,56.6-20.7c-15.9-13.3-35.9-20.6-56.7-20.6l-54.7,0l-47.9,0l0,41.3
		L385.5,191.1z"/>
	<path class="st1" d="M385,148.6l38.7-38.7c14.7-14.7,23.7-34,25.4-54.7c-20.7,1.8-40,10.8-54.7,25.4l-38.7,38.7l-26.5,32.7
		l25.4,18.3L385,148.6z"/>
	<path class="st0" d="M313.3,66.7l-1-2.3c-7.9-19.1-22.4-34.9-40.8-44.4c-6.3,19.8-5.3,41.1,2.6,60.2l0.8,2l38.8,81.9l33.9-18
		L313.3,66.7z"/>
	<path class="st1" d="M313.3,118.8V64.1c0-20.7,7.3-40.8,20.7-56.7c13.3,15.9,20.7,35.9,20.7,56.7v54.7v45.2h-40.4L313.3,118.8z"/>
	<path class="st0" d="M246,111.7l-2.3-1c-19.2-7.9-40.5-8.8-60.3-2.5c9.6,18.4,25.3,32.8,44.5,40.7l2,0.8l79.9,38.2l15.6-39.4
		L246,111.7z"/>
	<path class="st1" d="M282.9,148.6l-38.7-38.7c-14.7-14.7-23.7-34-25.4-54.7c20.7,1.8,40,10.8,54.7,25.4l38.7,38.7l33.3,32.1
		l-26.2,26.2L282.9,148.6z"/>
	<g>
		<path class="st1" d="M282.4,191.1h-54.7c-20.7,0-40.8-7.3-56.7-20.7c15.9-13.3,35.9-20.7,56.7-20.7h54.7h42.1v43L282.4,191.1z"/>
	</g>
	<g>
		<path class="st2" d="M334,114.9c30.7,0,55.6,24.9,55.6,55.5S364.6,226,334,226s-55.5-24.9-55.5-55.6S303.3,114.9,334,114.9z"/>
	</g>
	<path class="st3" d="M306.2,170.4c0-25.9,17.7-47.6,41.6-53.8c-4.4-1.1-9.1-1.8-13.9-1.8c-30.7,0-55.5,24.9-55.5,55.5
		S303.3,226,334,226c4.8,0,9.5-0.6,13.9-1.8C323.9,218,306.2,196.3,306.2,170.4z"/>
	<path class="st4" d="M188.2,469.2l24.6,10.8c13.6,6,29.3,5.8,44-0.4c-5.3-15-15.8-26.7-29.4-32.7l-24.6-10.8
		c-8.9-3.9-18.7-5.2-28.6-3.9l-14.7,2c-1.7,0.2-2.8,2.9-1.9,4.3l8.5,12.2C171.7,458.9,179.4,465.3,188.2,469.2L188.2,469.2z"/>
	<path class="st4" d="M345.5,460.4l-32.7,14.4c-18.1,7.9-38.1,9.7-56,4.9c8.5-16.4,23.3-30,41.4-38l32.7-14.4
		c11.8-5.2,24.4-7.8,36.9-7.5l18.5,0.3c2.1,0,3.3,2.7,1.9,4.3L376,438.2C367.7,447.6,357.2,455.2,345.5,460.4L345.5,460.4z"/>
	<g>
		<path d="M501.7,164.7c-11.5-9.7-25-16.4-39.5-19.8c12-8.7,22-20.1,28.9-33.4c1-2,1.1-4.3,0.3-6.3s-2.6-3.6-4.7-4.3
			c-14.2-4.5-29.3-5.6-43.9-3.2c7.7-12.6,12.5-26.9,13.8-41.8c0.2-2.2-0.6-4.4-2.2-5.9c-1.6-1.6-3.7-2.4-5.9-2.2
			c-14.9,1.3-29.3,6.1-41.9,13.9c2.4-14.6,1.3-29.7-3.2-44c-0.7-2.1-2.2-3.8-4.3-4.7c-2-0.8-4.4-0.7-6.3,0.3
			c-13.3,6.9-24.6,16.8-33.3,28.7c-3.4-14.4-10.2-27.9-19.8-39.3C338.3,1,336.2,0,334,0c-2.2,0-4.3,1-5.7,2.7
			c-10.3,12.3-17.3,26.9-20.5,42.4c-1.8-0.4-3.7-0.1-5.4,0.9c-3.5,2.1-4.7,6.8-2.5,10.3c2.2,3.6,4,7.2,5.6,10.9l0.4,0.9v34.3
			L281.3,78l-0.3-0.6c-6-14.5-7.6-30.5-4.7-45.8c1.3,0.9,2.6,1.8,3.8,2.8c3.3,2.5,8,1.9,10.5-1.4c2.5-3.3,1.9-8-1.4-10.5
			c-4.5-3.5-9.3-6.5-14.3-9.1c-2-1-4.3-1.1-6.3-0.3c-2,0.8-3.6,2.6-4.3,4.7c-4.5,14.2-5.6,29.3-3.2,43.9
			c-12.6-7.7-26.9-12.5-41.8-13.8c-2.2-0.2-4.4,0.6-5.9,2.2c-1.6,1.6-2.4,3.7-2.2,5.9c1.3,14.9,6.1,29.3,13.9,41.9
			c-14.6-2.3-29.7-1.3-44,3.3c-2.1,0.7-3.8,2.2-4.7,4.3c-0.8,2-0.7,4.4,0.3,6.3c6.9,13.3,16.8,24.6,28.7,33.3
			c-14.4,3.4-27.9,10.2-39.3,19.8c-1.7,1.4-2.7,3.5-2.7,5.7c0,2.2,1,4.3,2.7,5.7c11.5,9.7,25,16.4,39.5,19.8
			c-12,8.7-22,20.1-28.9,33.4c-1,2-1.1,4.3-0.3,6.3c0.8,2,2.6,3.6,4.7,4.3c9.4,3,19.1,4.4,28.8,4.4c5,0,10.1-0.4,15.1-1.2
			c-7.7,12.6-12.5,26.9-13.8,41.8c-0.2,2.2,0.6,4.4,2.2,5.9c1.4,1.4,3.3,2.2,5.3,2.2c0.2,0,0.4,0,0.6,0c14.9-1.3,29.3-6.1,41.9-13.9
			c-2.4,14.6-1.3,29.7,3.3,44c0.7,2.1,2.2,3.8,4.3,4.7c0.9,0.4,1.9,0.6,2.9,0.6c1.2,0,2.4-0.3,3.5-0.8c13.3-6.9,24.6-16.8,33.3-28.7
			c2,8.2,5,16.2,9.1,23.6l-44.5,54.1c-8,9.7-14.1,20.8-18.2,32.5c-8.4-18.1-22.4-33.5-40.4-43.7l-14.2-8c0.1-3.2-0.1-6.5-0.5-9.7
			c9.2,5.1,19.4,8.2,30,9.1c0.2,0,0.4,0,0.6,0c2,0,3.9-0.8,5.3-2.2c1.6-1.6,2.4-3.7,2.2-5.9c-1.2-13.5-5.9-26.4-13.8-37.4
			c-2.4-3.4-7.1-4.1-10.4-1.7c-3.4,2.4-4.1,7.1-1.7,10.4c4.4,6.1,7.6,13,9.4,20.2c-10.5-2.7-20.1-8.1-27.9-15.9l-23-23
			c1.8-1.2,3.5-2.6,5.1-4.1c2.6-2.4,4.9-5.1,7-7.9l0.9,0.9c1.5,1.5,3.4,2.2,5.3,2.2s3.8-0.7,5.3-2.2c2.9-2.9,2.9-7.7,0-10.6
			l-4.5-4.5c1.1-3.4,1.8-7,2.1-10.7c0.4-4.1-2.7-7.7-6.8-8.1c-4.1-0.4-7.7,2.7-8.1,6.8c-1.5,18.2-17.1,32.4-35.3,32.4
			c-19.6,0-35.5-15.9-35.5-35.5s15.9-35.5,35.5-35.5c4.2,0,8.4,0.7,12.3,2.2l0.9,0.4c2.3,0.9,4.9,0.6,7-0.8c2-1.4,3.3-3.7,3.3-6.2
			v-25.8c0-4.1-3.4-7.5-7.5-7.5s-7.5,3.4-7.5,7.5v16c-2.8-0.5-5.6-0.7-8.5-0.7c-2.9,0-5.7,0.3-8.5,0.7v-32.5c0-10.9,3-21.6,8.5-30.9
			c1.3,2.2,2.4,4.4,3.4,6.7c1.7,3.8,6.1,5.5,9.9,3.9c3.8-1.7,5.5-6.1,3.9-9.9c-2.9-6.7-6.8-12.9-11.4-18.5c-1.4-1.7-3.5-2.7-5.7-2.7
			c-2.2,0-4.3,1-5.7,2.7c-6.9,8.2-11.9,17.7-14.8,27.8c-6.6-8.3-14.8-15.1-24.3-20c-2-1-4.3-1.1-6.3-0.3c-2,0.8-3.6,2.6-4.3,4.7
			c-3.2,10.1-4.2,20.8-3,31.2c-9.2-5.1-19.4-8.2-30-9.1c-2.2-0.2-4.4,0.6-5.9,2.2c-1.6,1.6-2.4,3.7-2.2,5.9
			c0.9,10.6,4.1,20.9,9.2,30.1c-10.5-1.2-21.2-0.2-31.4,3c-2.1,0.7-3.8,2.2-4.7,4.3c-0.8,2-0.7,4.4,0.3,6.3
			c4.9,9.4,11.7,17.7,19.9,24.2c-10.1,2.9-19.5,7.9-27.7,14.8c-1.7,1.4-2.7,3.5-2.7,5.7c0,2.2,1,4.3,2.7,5.7
			c8.2,6.9,17.7,11.9,27.8,14.8c-8.3,6.6-15.1,14.8-20,24.3c-1,2-1.1,4.3-0.3,6.3c0.8,2,2.6,3.6,4.7,4.3c7.4,2.3,15.1,3.5,22.8,3.5
			c2.8,0,5.6-0.2,8.4-0.5c-5.1,9.2-8.2,19.4-9.1,30c-0.2,2.2,0.6,4.4,2.2,5.9c1.4,1.4,3.3,2.2,5.3,2.2c0.2,0,0.4,0,0.6,0
			c10.6-0.9,20.9-4.1,30.1-9.2c-1.2,10.5-0.2,21.2,3,31.4c0.7,2.1,2.2,3.8,4.3,4.7c0.9,0.4,1.9,0.6,2.9,0.6c1.2,0,2.4-0.3,3.5-0.8
			c9.4-4.9,17.7-11.7,24.2-19.9c2.9,10.1,7.9,19.5,14.8,27.7c1.4,1.7,3.5,2.7,5.7,2.7c2.2,0,4.3-1,5.7-2.7
			c6.9-8.2,11.9-17.7,14.8-27.8c6.6,8.3,14.8,15.1,24.3,20c1.1,0.6,2.3,0.8,3.4,0.8c1,0,2-0.2,2.9-0.6c2-0.8,3.6-2.6,4.3-4.7
			c0.6-1.8,1.1-3.6,1.5-5.4l8.9,5c25.8,14.5,41.8,42,41.8,71.6v2.8c-5.3-5.4-11.6-9.8-18.6-12.8l-24.6-10.8
			c-10.1-4.4-21.4-6-32.6-4.4l-14.7,2c-3.4,0.5-6.3,2.7-7.8,6.1c-1.5,3.4-1.2,7,0.8,9.9l8.5,12.2c6.5,9.3,15.2,16.6,25.3,21.1
			l24.6,10.8c7.7,3.4,15.8,5,24.1,5c5,0,10-0.6,15-1.8v14.4c0,4.1,3.4,7.5,7.5,7.5c4.1,0,7.5-3.4,7.5-7.5v-15.8
			c4.4,0.7,8.8,1,13.3,1c10.1,0,20.3-1.6,30.1-4.9c3.9-1.3,6-5.6,4.7-9.5c-1.3-3.9-5.6-6-9.5-4.7c-11.1,3.7-22.7,4.9-33.7,3.7
			c8-11,19.2-20,32.4-25.8l32.7-14.4c10.7-4.7,22.4-7.1,33.8-6.9l7.8,0.1l-5.2,5.9c-7.5,8.5-17.2,15.5-27.9,20.2l-10.9,4.8
			c-3.8,1.7-5.5,6.1-3.8,9.9c1.7,3.8,6.1,5.5,9.9,3.8l10.9-4.8c12.7-5.6,24.2-13.9,33.1-24l12.3-13.9c2.6-2.9,3.2-7.1,1.6-10.7
			c-1.6-3.6-5.1-5.9-9-6l-18.5-0.3c-13.5-0.2-27.4,2.6-40.1,8.2l-32.7,14.4c-12,5.3-22.7,12.8-31.3,22v-6.7v-6.3
			c0-21,7.3-41.5,20.7-57.7l41.5-50.5c0.7,0.9,1.4,1.7,2.1,2.6c1.4,1.7,3.5,2.7,5.7,2.7c2.2,0,4.3-1,5.7-2.7
			c10.7-12.7,17.8-28,20.8-44.2c1.3,0,2.5-0.3,3.7-1c3.6-2.1,4.8-6.6,2.8-10.2c-1.7-3-3.2-6.1-4.5-9.1l-0.4-0.9v-34.3l24.5,24.5
			l0.3,0.6c6,14.5,7.6,30.5,4.7,45.8c-1.9-1.3-3.7-2.7-5.5-4.1c-3.2-2.6-7.9-2.1-10.5,1.1c-2.6,3.2-2.1,7.9,1.1,10.5
			c5.1,4.1,10.6,7.8,16.3,10.7c1.1,0.6,2.3,0.8,3.4,0.8c1,0,2-0.2,2.9-0.6c2-0.8,3.6-2.6,4.3-4.7c4.5-14.2,5.5-29.3,3.2-43.9
			c12.6,7.7,26.9,12.5,41.8,13.8c0.2,0,0.4,0,0.6,0c2,0,3.9-0.8,5.3-2.2c1.6-1.6,2.4-3.7,2.2-5.9c-1.3-14.9-6.1-29.3-13.9-41.9
			c5,0.8,10.1,1.2,15.2,1.2c9.7,0,19.5-1.5,28.9-4.5c2.1-0.7,3.8-2.2,4.7-4.3c0.8-2,0.7-4.4-0.3-6.3c-6.9-13.3-16.8-24.6-28.7-33.3
			c14.4-3.4,27.8-10.2,39.3-19.8c1.7-1.4,2.7-3.5,2.7-5.7S503.4,166.1,501.7,164.7L501.7,164.7z M98,155.9
			c8.7,6.5,15.5,15.2,19.7,25.3l0.2,0.4v22.1l-15.8-15.8l-0.1-0.2C97.8,177.6,96.5,166.6,98,155.9z M89.3,196.2l23,23
			c-4.6,3.3-8.7,7.4-12,12l-23-23c-7.7-7.7-13.2-17.4-15.9-27.9C71.9,183,81.5,188.5,89.3,196.2L89.3,196.2z M36.8,217.1
			c10.7-1.6,21.7-0.2,31.8,4l0.4,0.2l15.6,15.6H62.4l-0.2-0.1C52.1,232.6,43.3,225.8,36.8,217.1z M28.3,260.3
			c9.3-5.5,20-8.5,30.9-8.5h32.5c-0.5,2.8-0.7,5.6-0.7,8.5c0,2.9,0.3,5.7,0.7,8.5H59.2C48.3,268.8,37.6,265.9,28.3,260.3z
			 M36.9,303.7c6.5-8.7,15.2-15.5,25.3-19.7l0.4-0.2h22.1l-15.8,15.8l-0.2,0.1C58.6,303.9,47.6,305.2,36.9,303.7z M89.3,324.5
			c-7.7,7.7-17.4,13.2-27.9,15.9c2.7-10.5,8.1-20.2,15.9-27.9l23-23c3.3,4.6,7.4,8.7,12,12L89.3,324.5z M117.9,339.3l-0.1,0.2
			c-4.2,10.1-11,18.8-19.7,25.3c-1.5-10.7-0.2-21.7,4-31.8l0.2-0.4l15.6-15.6V339.3z M149.9,342.5c0,10.9-3,21.6-8.5,30.9
			c-5.5-9.3-8.5-20-8.5-30.9v-32.5c2.8,0.5,5.6,0.7,8.5,0.7c2.9,0,5.7-0.3,8.5-0.7L149.9,342.5z M184.7,364.8
			c-8.7-6.5-15.5-15.2-19.7-25.3l-0.2-0.4V317l15.8,15.8l0.1,0.2C184.9,343.1,186.3,354.1,184.7,364.8L184.7,364.8z M215.9,473.2
			l-24.6-10.8c-7.6-3.3-14.2-8.8-19.1-15.9l-4-5.8l7-1c8.5-1.2,17,0,24.6,3.3l24.6,10.8c9.6,4.2,17.3,11.7,22.4,21.4
			C236.2,478.1,225.5,477.4,215.9,473.2L215.9,473.2z M472.9,112.8c-8.8,12.9-21.2,23.1-35.7,29.1l-0.9,0.4h-34.3l24.5-24.5l0.6-0.3
			C441.6,111.5,457.5,109.9,472.9,112.8L472.9,112.8z M399.8,85.9c11.1-11.1,25.2-18.7,40.5-21.9c-3.2,15.3-10.8,29.4-21.9,40.5
			l-31.6,31.6c-4.8-7.4-11.2-13.8-18.6-18.6L399.8,85.9z M362.1,67.8l0.3-0.6c6-14.5,16.2-26.9,29-35.7c2.9,15.3,1.3,31.3-4.7,45.8
			l-0.4,1l-24.2,24.2L362.1,67.8L362.1,67.8z M320.8,64.1c0-15.7,4.6-31.1,13.2-44.1c8.6,13.1,13.2,28.4,13.2,44.1v44.6
			c-4.3-0.9-8.7-1.4-13.2-1.4s-8.9,0.5-13.2,1.4V64.1z M268.1,85.9l31.6,31.6c-7.4,4.8-13.8,11.2-18.6,18.6l-31.6-31.6
			c-11.1-11.1-18.7-25.2-21.9-40.5C242.9,67.2,257,74.8,268.1,85.9L268.1,85.9z M195,112.9c15.3-2.9,31.3-1.3,45.8,4.7l1,0.4
			l24.2,24.2h-34.6l-0.6-0.3C216.2,136,203.8,125.8,195,112.9z M183.6,170.4c13.1-8.6,28.4-13.2,44.1-13.2h44.6
			c-0.9,4.3-1.4,8.7-1.4,13.2s0.5,8.9,1.4,13.2h-44.6C212,183.6,196.6,179,183.6,170.4L183.6,170.4z M195,228
			c8.8-12.9,21.2-23.1,35.7-29.1l0.9-0.4H266L241.5,223l-0.6,0.3C226.3,229.3,210.4,230.9,195,228L195,228z M268.1,254.9
			c-11.1,11.1-25.2,18.7-40.5,21.9c3.2-15.3,10.8-29.4,21.9-40.5l31.6-31.6c4.8,7.4,11.2,13.8,18.6,18.6L268.1,254.9z M305.8,273
			l-0.3,0.7c-6,14.5-16.2,26.9-29,35.7c-2.9-15.3-1.3-31.3,4.7-45.8l0.4-1l24.2-24.2L305.8,273L305.8,273z M347.1,276.7
			c0,15.7-4.6,31.1-13.2,44.1c-8.6-13.1-13.2-28.4-13.2-44.1v-44.6c4.3,0.9,8.7,1.4,13.2,1.4c4.5,0,8.9-0.5,13.2-1.4L347.1,276.7z
			 M334,218.5c-26.5,0-48.1-21.6-48.1-48.1c0-26.5,21.6-48.1,48.1-48.1c26.5,0,48.1,21.6,48.1,48.1C382,196.9,360.5,218.5,334,218.5
			z M399.8,254.9l-31.6-31.6c7.4-4.8,13.8-11.2,18.6-18.6l31.6,31.6c11.1,11.1,18.7,25.2,21.9,40.5C425,273.6,410.9,266,399.8,254.9
			L399.8,254.9z M472.9,227.9c-15.3,2.9-31.3,1.3-45.8-4.7l-1-0.4l-24.2-24.2h34.6l0.6,0.3C451.7,204.8,464.1,215,472.9,227.9
			L472.9,227.9z M440.2,183.6h-44.6c0.9-4.3,1.4-8.7,1.4-13.2c0-4.5-0.5-8.9-1.4-13.2h44.6c15.7,0,31.1,4.6,44.1,13.2
			C471.3,179,455.9,183.6,440.2,183.6z"/>
	</g>
</g>
<g>
	<path class="st4" d="M1412.7,453.2l-29.1,12.9c-16.1,7.1-34.2,8.1-50.6,2.6c7.1-15.9,19.9-28.6,36-35.7l29.1-12.9
		c10.5-4.6,21.9-6.7,33.2-6l16.8,1.1c1.9,0.1,3.1,2.7,1.9,4.3l-10.5,13.2C1432.3,441.5,1423.1,448.6,1412.7,453.2L1412.7,453.2z"/>
	<path class="st4" d="M1243.3,438.3l24.7,10.9c13.6,6,29.4,5.9,44.1-0.3c-5.3-15.1-15.8-26.8-29.4-32.8l-24.7-10.9
		c-8.9-3.9-18.7-5.3-28.7-4l-14.8,2c-1.7,0.2-2.9,2.9-1.9,4.3l8.5,12.3C1226.8,428,1234.4,434.4,1243.3,438.3L1243.3,438.3z"/>
	<path class="st5" d="M1336,511c1.2,0,2.2-1,2.2-2.2v-61.7c0-30.9,9-60.6,26-86.1l19.8-29.7c0-0.1,0.1-0.1,0.1-0.2l11-21.4
		c0.2-0.3,0.2-0.6,0.2-1v-16.7c0-0.9-0.5-1.7-1.3-2l-13.8-5.7c-1-0.4-2.1-0.1-2.6,0.8l-31.1,47.8l-7,10.5
		c-20.5,30.6-31.3,66.4-31.3,103.6v61.7c0,1.2,1,2.2,2.2,2.2L1336,511L1336,511z"/>
	<g id="XMLID_251_">
		<g>
			<path class="st6" d="M1358.1,227.9c32.1,0,58.2-26,58.2-58.2c0-32.1-26-58.2-58.2-58.2s-58.2,26-58.2,58.2
				c0,15.7,6.2,30,16.4,40.5C1326.9,221.1,1341.7,227.9,1358.1,227.9L1358.1,227.9z M1516.1,132.6c2.8,11.9,4.3,24.4,4.3,37.1
				c0,12.8-1.5,25.2-4.3,37.2c-0.8,3.3-3.8,5.7-7.2,5.7h-47.4L1495,246c2.4,2.4,2.9,6.2,1.1,9.1c-13.2,21.3-31.2,39.3-52.5,52.5
				c-2.9,1.8-6.7,1.3-9.1-1.1l-33.5-33.5v47.4c0,3.4-2.3,6.4-5.7,7.2c-11.9,2.8-24.4,4.3-37.1,4.3c-12.8,0-25.2-1.5-37.1-4.3
				c-3.3-0.8-5.7-3.8-5.7-7.2V291c0-6.6-8-9.9-12.7-5.2l-20.8,20.8c-2.4,2.4-6.2,2.9-9.1,1.1c-21.3-13.2-39.3-31.2-52.5-52.5
				c-1.8-2.9-1.3-6.7,1.1-9.1l33.5-33.5h-47.4c-3.4,0-6.4-2.3-7.2-5.7c-2.8-11.9-4.3-24.4-4.3-37.2c0-12.8,1.5-25.2,4.3-37.1
				c0.8-3.3,3.8-5.7,7.2-5.7h29.4c6.6,0,9.9-8,5.3-12.7l-20.8-20.8c-2.4-2.4-2.9-6.2-1.1-9.1c13.2-21.3,31.2-39.3,52.5-52.5
				c2.9-1.8,6.7-1.3,9.1,1.1l20.8,20.8c4.7,4.7,12.7,1.4,12.7-5.3V19c0-3.4,2.3-6.4,5.7-7.2c11.9-2.8,24.4-4.3,37.1-4.3
				s25.2,1.5,37.1,4.3c3.3,0.8,5.7,3.8,5.7,7.2v47.4l33.5-33.5c2.4-2.4,6.2-2.9,9.1-1.1c21.3,13.2,39.3,31.2,52.5,52.5
				c1.8,2.9,1.3,6.7-1.1,9.1l-20.8,20.8c-4.7,4.7-1.4,12.7,5.3,12.7h29.4C1512.3,126.9,1515.3,129.2,1516.1,132.6L1516.1,132.6z"/>
		</g>
	</g>
	<path class="st7" d="M1416.3,169.7c0,32.1-26,58.2-58.2,58.2c-16.4,0-31.2-6.8-41.8-17.7c-10.2-10.5-16.4-24.7-16.4-40.5
		c0-32.1,26-58.2,58.2-58.2S1416.3,137.6,1416.3,169.7z"/>
	<path class="st3" d="M1345.3,210.2c-10.2-10.5-16.4-24.7-16.4-40.5c0-27.1,18.6-49.9,43.7-56.4c-4.6-1.2-9.5-1.8-14.5-1.8
		c-32.1,0-58.2,26-58.2,58.2c0,15.7,6.2,30,16.4,40.5c10.6,10.9,25.4,17.7,41.8,17.7c5,0,9.8-0.6,14.5-1.8
		C1362,223.4,1352.6,217.8,1345.3,210.2L1345.3,210.2z"/>
	<g>
		<path d="M1523.4,130.9c-1.6-6.8-7.6-11.5-14.5-11.5l-29.2,0l20.7-20.7c4.9-4.9,5.8-12.5,2.2-18.4c-13.8-22.2-32.8-41.2-54.9-54.9
			c-5.9-3.7-13.5-2.8-18.4,2.2l-20.7,20.7v-2.5V19c0-7-4.7-12.9-11.5-14.5c-25.4-5.9-52.4-5.9-77.7,0c-6.8,1.6-11.5,7.6-11.5,14.5
			l0,29.2l-20.7-20.7c-4.9-4.9-12.5-5.8-18.4-2.2c-22.2,13.8-41.2,32.8-54.9,54.9c-3.7,5.9-2.8,13.5,2.2,18.4l20.7,20.7h-16.3h-12.9
			c-7,0-12.9,4.7-14.5,11.5c-3,12.7-4.5,25.8-4.5,38.9c0,13.1,1.5,26.2,4.5,38.9c1.6,6.8,7.6,11.5,14.5,11.5h29.2l-20.7,20.7
			c-4.9,4.9-5.8,12.5-2.2,18.4c13.8,22.2,32.8,41.2,54.9,54.9c5.9,3.7,13.5,2.8,18.4-2.2l20.7-20.7v17.2v12c0,7,4.7,12.9,11.5,14.5
			c4.6,1.1,9.2,2,13.9,2.6c-6.8,9.9-12.6,20.4-17.4,31.4c-1.6,3.8,0.1,8.2,3.9,9.9c1,0.4,2,0.6,3,0.6c2.9,0,5.7-1.7,6.9-4.5
			c4.4-10.1,9.8-19.9,16.1-29l4.6-6.7c2.6,0.1,5.2,0.2,7.8,0.2c3.5,0,7-0.1,10.5-0.3l-10.6,15.4c-17.9,26-27.3,56.4-27.3,87.9v62.1
			c0,4.1,3.4,7.5,7.5,7.5s7.5-3.4,7.5-7.5v-29.1c4.8,0.9,9.7,1.4,14.6,1.4c8.9,0,17.7-1.5,26.2-4.5c3.9-1.4,6-5.7,4.6-9.6
			c-1.4-3.9-5.7-6-9.6-4.6c-10.3,3.6-21.3,4.5-31.8,2.7c6.6-10.5,16.3-18.8,27.9-23.9l29.1-12.9c9.3-4.1,19.6-6,29.7-5.3l7.5,0.5
			l-4.7,5.8c-6.3,7.9-14.6,14.3-23.9,18.4l-4.9,2.2c-3.8,1.7-5.5,6.1-3.8,9.9c1.7,3.8,6.1,5.5,9.9,3.8l4.9-2.2
			c11.5-5.1,21.8-13,29.6-22.8l10.5-13.2c2.3-2.9,2.8-6.9,1.2-10.4c-1.6-3.5-4.8-5.8-8.5-6.1l-16.8-1.1c-12.5-0.8-25.2,1.5-36.7,6.6
			l-29.1,12.9c-9.9,4.4-18.6,10.6-25.7,18.3c0.2-28.1,8.7-55.2,24.7-78.4l18.1-26.3c2.8-0.5,5.7-1.1,8.5-1.7
			c6.8-1.6,11.5-7.6,11.5-14.5v-29.2l20.7,20.7c4.9,4.9,12.5,5.8,18.4,2.2c22.2-13.8,41.2-32.8,54.9-54.9c3.7-5.9,2.8-13.5-2.2-18.4
			l-20.7-20.7h16.9h12.3c7,0,12.9-4.7,14.5-11.5c3-12.7,4.5-25.8,4.5-38.9C1527.9,156.6,1526.4,143.5,1523.4,130.9L1523.4,130.9z
			 M1508.8,205h-12.3h-35h-15.2c-4.1,0-7.5,3.4-7.5,7.5c0,4.1,3.4,7.5,7.5,7.5h12.1l31.2,31.2c-2.3,3.7-4.8,7.4-7.5,10.9l-16.2-16.2
			c-2.9-2.9-7.7-2.9-10.6,0c-2.9,2.9-2.9,7.7,0,10.6l17.2,17.2c-3.4,3.7-7,7.3-10.7,10.7l-20.5-20.5c-2.9-2.9-7.7-2.9-10.6,0
			c-2.9,2.9-2.9,7.7,0,10.6l19.4,19.4c-3.4,2.5-6.9,4.9-10.4,7.1l-33.4-33.4c-2.1-2.1-5.4-2.8-8.2-1.6c-2.8,1.2-4.6,3.9-4.6,6.9
			v47.3c-4.1,1-8.2,1.7-12.4,2.3v-22.5c0-4.1-3.4-7.5-7.5-7.5s-7.5,3.4-7.5,7.5v24c-5,0.3-10.1,0.3-15.2,0v-28.6
			c0-4.1-3.4-7.5-7.5-7.5c-4.1,0-7.5,3.4-7.5,7.5v27.2c-4.4-0.6-8.8-1.4-13.1-2.5v-11.9V291v-25.2c0-4.1-3.4-7.5-7.5-7.5
			c-4.1,0-7.5,3.4-7.5,7.5v10.3c-3.9,0-7.6,1.5-10.5,4.4l-20.8,20.8c-3.5-2.2-6.9-4.5-10.3-7l16.8-16.8c2.9-2.9,2.9-7.7,0-10.6
			c-2.9-2.9-7.7-2.9-10.6,0l-17.8,17.8c-3.8-3.4-7.3-7-10.8-10.7l21.1-21.1c2.9-2.9,2.9-7.7,0-10.6c-2.9-2.9-7.7-2.9-10.6,0
			l-20.1,20.1c-2.7-3.6-5.2-7.3-7.6-11.1l33.4-33.4c2.1-2.1,2.8-5.4,1.6-8.2c-1.2-2.8-3.9-4.6-6.9-4.6h-47.3
			c-1.1-4.7-2-9.5-2.6-14.4h22c4.1,0,7.5-3.4,7.5-7.5c0-4.1-3.4-7.5-7.5-7.5h-23.3c-0.1-2-0.1-3.9-0.1-5.9c0-3.1,0.1-6.2,0.3-9.3
			h27.7c4.1,0,7.5-3.4,7.5-7.5s-3.4-7.5-7.5-7.5h-26c0.6-3.7,1.3-7.4,2.1-11h12.8h16.5h27.9c4.1,0,7.5-3.4,7.5-7.5
			c0-4.1-3.4-7.5-7.5-7.5h-13c0-3.9-1.5-7.6-4.4-10.5l-20.8-20.8c2.2-3.6,4.6-7,7.1-10.4l15.8,15.8c1.5,1.5,3.4,2.2,5.3,2.2
			s3.8-0.7,5.3-2.2c2.9-2.9,2.9-7.7,0-10.6l-16.9-16.9c3.4-3.8,7-7.3,10.7-10.7l20.1,20.1c1.5,1.5,3.4,2.2,5.3,2.2
			c1.9,0,3.8-0.7,5.3-2.2c2.9-2.9,2.9-7.7,0-10.6l-19.1-19.1c3.6-2.7,7.2-5.2,11-7.5l20.8,20.8c2.8,2.8,6.6,4.4,10.5,4.4v4.1
			c0,4.1,3.4,7.5,7.5,7.5s7.5-3.4,7.5-7.5V48.4V38.4V19.1c4.5-1,9-1.9,13.6-2.5v21.8c0,4.1,3.4,7.5,7.5,7.5s7.5-3.4,7.5-7.5V15.2
			c5.1-0.2,10.1-0.2,15.2,0.1v27.7c0,4.1,3.4,7.5,7.5,7.5s7.5-3.4,7.5-7.5V16.8c4,0.6,8,1.4,11.9,2.3v26.6v20.7v15.2
			c0,4.1,3.4,7.5,7.5,7.5s7.5-3.4,7.5-7.5V69.5l31.2-31.2c4,2.5,7.9,5.2,11.6,8l-15.9,15.9c-2.9,2.9-2.9,7.7,0,10.6
			c1.5,1.5,3.4,2.2,5.3,2.2c1.9,0,3.8-0.7,5.3-2.2l16.8-16.8c3.7,3.4,7.3,7,10.7,10.8l-20,20c-2.9,2.9-2.9,7.7,0,10.6
			c1.5,1.5,3.4,2.2,5.3,2.2c1.9,0,3.8-0.7,5.3-2.2l18.9-18.9c2.3,3.2,4.5,6.4,6.6,9.7l-20.8,20.8c-4.3,4.3-5.6,10.7-3.2,16.3
			c2.3,5.6,7.7,9.2,13.8,9.2h29.4c1,4.1,1.8,8.3,2.4,12.5h-23.5c-4.1,0-7.5,3.4-7.5,7.5s3.4,7.5,7.5,7.5h25c0.1,2.6,0.2,5.2,0.2,7.8
			c0,2.5-0.1,4.9-0.2,7.4h-29.6c-4.1,0-7.5,3.4-7.5,7.5c0,4.1,3.4,7.5,7.5,7.5h28.1C1510.6,196.5,1509.8,200.8,1508.8,205z"/>
		<path d="M1430.9,162.5h-7.5c-1.4-12.6-6.4-24.1-13.9-33.6l5.8-5.8c2.9-2.9,2.9-7.7,0-10.6c-2.9-2.9-7.7-2.9-10.6,0l-5.8,5.8
			c-9.4-7.4-20.8-12.4-33.3-13.8v-7.2c0-4.1-3.4-7.5-7.5-7.5c-4.1,0-7.5,3.4-7.5,7.5v7.2c-12.4,1.4-23.8,6.3-33.1,13.7l-5.3-5.3
			c-2.9-2.9-7.7-2.9-10.6,0c-2.9,2.9-2.9,7.7,0,10.6l5.3,5.3c-7.4,9.2-12.4,20.5-13.9,32.9h-7.5c-4.1,0-7.5,3.4-7.5,7.5
			s3.4,7.5,7.5,7.5h7.4c1.3,12.4,6.1,23.8,13.3,33.2l-5.2,5.2c-2.9,2.9-2.9,7.7,0,10.6c2.9,2.9,7.7,2.9,10.6,0l5-5
			c9.3,7.6,20.6,12.7,33.1,14.3v7.9c0,4.1,3.4,7.5,7.5,7.5s7.5-3.4,7.5-7.5v-7.7c12.6-1.3,24.2-6.1,33.7-13.5l5.7,5.7
			c2.9,2.9,7.7,2.9,10.6,0c2.9-2.9,2.9-7.7,0-10.6l-5.6-5.6c7.6-9.4,12.7-20.9,14.2-33.5h7.5c4.1,0,7.5-3.4,7.5-7.5
			S1435,162.5,1430.9,162.5L1430.9,162.5z M1358.1,220.4c-27.9,0-50.7-22.7-50.7-50.7s22.7-50.7,50.7-50.7
			c27.9,0,50.7,22.7,50.7,50.7S1386.1,220.4,1358.1,220.4L1358.1,220.4z"/>
		<path d="M1314.4,395.1c-4-0.9-8.1,1.6-9,5.6c-1.6,7-2.8,14.2-3.6,21.4c-5.7-6.4-12.7-11.6-20.6-15.1l-24.7-10.9
			c-10.1-4.5-21.4-6.1-32.7-4.5l-14.8,2c-3.4,0.5-6.3,2.7-7.8,6.1c-1.5,3.4-1.2,7.1,0.7,9.9l8.5,12.3c6.5,9.4,15.2,16.7,25.3,21.2
			l24.7,10.9c7.7,3.4,15.9,5.1,24.3,5.1c5.3,0,10.6-0.7,15.9-2v47.5c0,4.1,3.4,7.5,7.5,7.5s7.5-3.4,7.5-7.5v-62.1
			c0-12.9,1.5-25.8,4.3-38.3C1321,400,1318.4,396,1314.4,395.1L1314.4,395.1z M1266.5,440.2l-24.7-10.9c-7.6-3.4-14.2-8.9-19.1-16
			l-4-5.8l7-0.9c8.5-1.1,17.1,0,24.6,3.4l24.7,10.9c9.6,4.2,17.4,11.8,22.4,21.5C1286.9,445.1,1276.1,444.4,1266.5,440.2
			L1266.5,440.2z"/>
	</g>
</g>
<g>
	<path class="st8" d="M1057.7,289.3l9.9,7.7c9.3,7.2,13.7,19,11.5,30.5c-2.7,14.3-15,24.8-29.5,25.3c-40.3,1.5-80-10-113.2-32.8
		l-12-8.2l-6.7-40.9l82.5-27.8L1057.7,289.3z"/>
	<g>
		<path class="st4" d="M853.6,400.4c-6.7,7.3-3.1,16.7,6.7,17.7c8.4,0.8,18.8,0.6,28.8-3.3c10-3.8,18-10.5,23.7-16.7
			c6.7-7.3,3.1-16.7-6.7-17.7c-8.4-0.8-18.8-0.6-28.8,3.3C867.3,387.5,859.3,394.2,853.6,400.4z"/>
		<path class="st4" d="M845.9,436.9c8.2,8.9,3.8,20.6-8.3,21.8c-10.3,1-23.1,0.7-35.4-4s-22.1-12.9-29.1-20.5
			c-8.2-8.9-3.8-20.6,8.3-21.8c10.3-1,23.1-0.7,35.4,4C829.1,421.1,838.9,429.3,845.9,436.9L845.9,436.9z"/>
		<path class="st4" d="M845.2,329.7c7.2,5.7,5.3,14.9-3.6,17.3c-7.6,2-17.2,3.3-27,1.2c-9.8-2-18.1-7-24.2-11.9
			c-7.2-5.7-5.3-14.9,3.6-17.3c7.6-2,17.2-3.3,27-1.2C830.8,319.9,839.1,324.9,845.2,329.7z"/>
	</g>
	<path class="st8" d="M807.8,205.3l11.1-14.9C849.5,149,866,98.9,866,47.4c0-18.6-12.8-34.7-30.9-38.9c-14.6-3.4-29.9,1.8-39.5,13.3
		L785.3,34l-47.8,60.6l60.9,119.8L807.8,205.3z"/>
	<path class="st8" d="M788.4,221.7l-17,7.4c-47.2,20.5-99.7,25.4-149.8,13.9c-18.1-4.2-31-20.3-31-38.9c0-15,8.4-28.7,21.8-35.5
		l14.2-7.2l67.9-36.4l86.3,46.1l17.7,43.3L788.4,221.7z"/>
	<path class="st9" d="M787.7,206.9c-47.2,20.5-99.7,25.4-149.8,13.9c-18.1-4.2-31-20.3-31-38.9c0-3.8,0.5-7.5,1.5-11
		c-11.1,7.3-17.9,19.8-17.9,33.2c0,18.6,12.8,34.7,31,38.9c50.1,11.5,102.7,6.6,149.8-13.9l17-7.4l10-7.3l-4.2-10.3L787.7,206.9z"/>
	<g id="XMLID_252_">
		<g>
			<path class="st9" d="M809.5,53.2c16.9,37.6,19.9,80,8.3,119.6l-8.2,28.1c-3.8,12.9-15.5,21.8-28.9,22l-29.2,0.5
				c-41.2,0.7-81.4-13.4-113.1-39.7c-7.9-6.5-12-15.9-12-25.5c0-6.8,2.1-13.6,6.4-19.5l13.3-18.1c5.7-7.8,8.8-17.3,8.8-27V62.9
				c0-17.8,17-30.7,34.1-25.9l29.3,8.1c9.4,2.6,19.4,2.2,28.5-1.3l20.9-8C783.9,29.6,802.3,37.2,809.5,53.2L809.5,53.2z"/>
		</g>
	</g>
	<g>
		<path class="st10" d="M677.1,183.6c-7.9-6.5-12-15.9-12-25.5c0-6.8,2.1-13.6,6.4-19.5l13.3-18.1c5.7-7.8,8.8-17.3,8.8-27V62.9
			c0-9,4.3-16.7,10.9-21.6L688.9,37c-17.1-4.8-34.1,8.1-34.1,25.9v30.6c0,9.7-3.1,19.2-8.8,27l-13.3,18.1
			c-4.3,5.9-6.4,12.7-6.4,19.5c0,9.5,4.1,19,12,25.5c31.8,26.3,71.9,40.4,113.1,39.7l24.3-0.4C739.7,220.5,705.1,206.8,677.1,183.6
			L677.1,183.6z"/>
	</g>
	<path class="st8" d="M954.3,167.8l-6.1-10.9c-5.7-10.3-16.7-16.5-28.4-16c-14.5,0.5-26.8,11-29.5,25.3
		c-7.6,39.6-2.3,80.6,15.1,116.9l6.3,13.1l30.9,1.7l35.2-70.2L954.3,167.8z"/>
	<path class="st9" d="M923.5,288.5c-17.4-36.4-22.7-77.3-15.1-116.9c2.7-14.3,15-24.8,29.5-25.3c0.2,0,0.4,0,0.6,0
		c-5.4-3.7-11.9-5.6-18.7-5.4c-14.5,0.5-26.8,11-29.5,25.3c-7.6,39.6-2.3,80.6,15.1,116.9l6.3,13.1l15.9,0.9L923.5,288.5z"/>
	<path class="st9" d="M988.1,184.5l-20.4-12.6c-11.7-7.2-26.9-4.1-34.8,7.1c-18.6,26.4-27.1,58.6-24,90.8l2.2,22.8
		c1,10.5,8.7,19,19,21.2l22.4,4.7c31.6,6.6,64.6,1.7,92.9-13.9c12-6.6,16.8-21.4,10.9-33.8l-10.3-21.7c-1.5-3.1-1.9-6.5-1.3-9.9
		l5.7-29.9c2.6-13.7-8.5-26.1-22.4-24.9l-30.2,2.5C994.5,187.1,991.1,186.3,988.1,184.5L988.1,184.5z"/>
	<g>
		<path class="st10" d="M932.9,202c7.9-11.2,23.1-14.3,34.8-7.1l20.4,12.6c2.9,1.8,6.3,2.6,9.7,2.3l30.2-2.5
			c9-0.7,16.9,4.2,20.5,11.6l1.8-9.6c2.6-13.7-8.5-26.1-22.4-24.9l-30.2,2.5c-3.4,0.3-6.8-0.5-9.7-2.3l-20.4-12.6
			c-11.7-7.2-26.9-4.1-34.8,7.1c-18.3,26.1-26.8,57.7-24.1,89.4C910.8,244.7,919.1,221.8,932.9,202L932.9,202z"/>
	</g>
	<g>
		<path d="M1072.2,291l-6.2-4.8c0.8-6.2-0.1-12.6-2.9-18.6l-10.3-21.7c-0.8-1.6-1-3.5-0.7-5.2l5.7-29.9c1.7-8.8-0.8-17.8-6.8-24.5
			c-6-6.7-14.6-10.1-23.6-9.4l-30.2,2.5c-1.8,0.2-3.6-0.3-5.2-1.2l-20.4-12.6c-4-2.4-8.2-4-12.6-4.6l-3.9-7
			c-6.7-12-19.1-19.8-32.4-20.4c-19.1-0.9-36.2,12.6-39.8,31.4c-1.4,7.4-2.4,15-3,22.6c-0.2,2.3,0.7,4.5,2.3,6.1
			c1.4,1.4,3.4,2.1,5.3,2.1c0.3,0,0.5,0,0.8,0c4.1-0.5,7.1-4.1,6.6-8.2c0.5-6.6,1.4-13.2,2.7-19.7c2.2-11.7,12.5-19.8,24.4-19.2
			c8.1,0.4,15.8,5.2,19.9,12.7l0.8,1.4c-6.3,2.3-11.9,6.4-16,12.2c-15.6,22.2-24.5,48.4-25.8,75.2c-2.6-9.5-4.5-19.3-5.5-29.3
			c0-0.4,0-0.8,0-1.3c-0.4-4.1-4.2-7.1-8.3-6.7c-2,0.2-3.8,1.2-5.1,2.8c-1.3,1.5-1.9,3.6-1.7,5.6c2.3,22.8,8.4,44.7,18.3,65.3
			l6,12.6c0.5,1.6,1.1,3.2,1.8,4.7c-19.6,16.1-36.2,35.6-48.9,57.4v-11.6c0-3.8-0.2-7.6-0.5-11.4c0-1.1-0.1-2.1-0.3-3.2
			c-1.9-19.6-7.7-38.8-17-56.1l-32.1-60.2c2.6-2.7,4.8-5.8,6.5-9.3l10.7-14.4c31.3-42.4,48.5-94.7,48.5-147.4
			c0-22.2-15.1-41.2-36.8-46.2c-17.5-4-35.4,2-46.9,15.8l-7.8,9.3c-5.7-0.4-11.5,0.4-17.1,2.6l-20.9,8c-7.7,2.9-15.9,3.3-23.8,1.1
			l-29.3-8.1c-10.4-2.9-21.4-0.8-30,5.7c-8.6,6.6-13.6,16.5-13.6,27.4v30.6c0,8.2-2.6,16-7.4,22.5l-13.3,18.1
			c-5,6.8-7.6,14.8-7.8,22.7l-10,5.1c-16,8.1-25.9,24.3-25.9,42.2c0,22.2,15.1,41.2,36.8,46.2c18.1,4.2,36.7,6.2,55.2,6.2
			c34,0,68.1-6.9,99.3-20.5l16.4-7.2c1.6-0.5,3.1-1,4.6-1.7l31.2,58.6c5.1,9.7,9.1,19.9,11.8,30.5c-5.2-2.8-10.5-4.7-15.9-5.8
			c-9.4-2-19.6-1.5-30.4,1.3c-7,1.8-12,6.7-13.3,13.1c-1.3,6.4,1.3,12.8,6.9,17.3c8.7,6.9,17.9,11.4,27.3,13.3
			c3.9,0.8,7.8,1.2,12,1.2c5.6,0,11.5-0.8,17.5-2.3v68.8c-7.3-6.2-15-10.9-23.2-14c-11.5-4.4-24.6-5.9-38.8-4.4
			c-8.6,0.9-15.3,5.6-18,12.8c-2.7,7.2-0.9,15.2,5,21.5c4.6,5,9.6,9.4,14.7,13.1c3.4,2.4,8.1,1.6,10.5-1.7c2.4-3.4,1.6-8.1-1.7-10.5
			c-4.3-3.1-8.5-6.8-12.4-11.1c-1.9-2.1-2.6-4.3-2-6c0.7-1.7,2.7-2.9,5.5-3.2c11.9-1.2,22.7,0,32,3.5c9.3,3.5,18.2,9.8,26.3,18.6
			c1.4,1.5,2.1,3.1,2.2,4.5v0.3c0,0.4-0.1,0.8-0.2,1.2c-0.7,1.7-2.7,2.9-5.5,3.2c-6.8,0.7-13.4,0.6-19.5-0.3
			c-4.1-0.6-7.9,2.2-8.5,6.3c-0.6,4.1,2.2,7.9,6.3,8.5c4.2,0.6,8.6,0.9,13,0.9c3.3,0,6.7-0.2,10.1-0.5c1.5-0.1,2.9-0.4,4.2-0.8v39.1
			c0,4.1,3.4,7.5,7.5,7.5c4.1,0,7.5-3.4,7.5-7.5v-57c0-0.5,0-1,0-1.6v-20.7c0.6,0.1,1.3,0.2,2,0.3c2.9,0.3,5.7,0.4,8.5,0.4
			c8.6,0,16.5-1.4,23.8-4.1c9.6-3.6,18.5-9.9,26.6-18.6c5.1-5.5,6.7-12.6,4.3-19c-2.4-6.3-8.3-10.6-15.8-11.3
			c-11.8-1.2-22.6,0.1-32.2,3.7c-3.9,1.5-7.6,3.4-11.3,5.7c12.4-25.8,30.3-48.7,52.6-66.9c1.4,1.1,2.9,2,4.5,2.8l11.6,7.9
			c32.4,22.2,71.5,34.2,110.8,34.2c2.3,0,4.6,0,6.9-0.1c18.2-0.7,33.2-13.6,36.6-31.4C1089.2,314.5,1083.7,300,1072.2,291
			L1072.2,291z M638.8,143l13.3-18.1c6.7-9.2,10.3-20,10.3-31.4V62.9c0-6.1,2.8-11.7,7.7-15.4c4.9-3.7,11-4.9,16.9-3.2l29.3,8.1
			c11,3.1,22.5,2.5,33.2-1.5l20.9-8c12.6-4.8,26.8,1.1,32.4,13.4c1.3,2.8,2.5,5.8,3.7,8.9c1.5,3.9,5.8,5.8,9.7,4.3
			c3.9-1.5,5.8-5.8,4.3-9.7c-1.3-3.4-2.6-6.6-4-9.7c-3.9-8.7-10.5-15.3-18.4-19.4l3.4-4.1c7.9-9.4,20.1-13.5,32.1-10.8
			c14.8,3.4,25.1,16.4,25.1,31.5c0,40.1-10.7,80.1-30.4,115c5-23,5.4-47,1.3-70.2c-0.7-4.1-4.6-6.8-8.7-6.1
			c-4.1,0.7-6.8,4.6-6.1,8.7c4.5,25.1,3.1,51.3-4,75.8l-2.5,8.5l-25.7-55.1c-1.8-3.8-6.2-5.4-10-3.6c-3.8,1.8-5.4,6.2-3.6,10
			l32.9,70.4c-2.7,6.8-8.4,11.7-15.2,13.6c-0.1,0-0.2,0.1-0.3,0.1c-0.8,0.2-1.6,0.4-2.5,0.5l-54.1-54.6c-2.9-2.9-7.7-3-10.6,0
			c-2.9,2.9-3,7.7,0,10.6l44.2,44.6l-11.6,0.2c-0.9,0-1.7,0-2.6,0c-38.5,0-75.9-13.5-105.6-38C632.7,169.2,630.8,153.9,638.8,143
			L638.8,143z M623.2,235.7c-14.8-3.4-25.1-16.4-25.1-31.5c0-12.2,6.8-23.3,17.7-28.8l5.7-2.9c2.4,6.4,6.5,12.3,12.1,16.9
			c31.5,26.1,71.1,40.7,111.9,41.5C706,243.1,663.5,244.9,623.2,235.7L623.2,235.7z M839.7,339.7c-8.5,2.2-16.4,2.6-23.5,1.1
			c-7.1-1.5-14.2-5-21.1-10.4c-1.2-1-1.7-1.9-1.5-2.5c0.1-0.5,0.9-1.2,2.4-1.6c5.1-1.3,10-2,14.6-2c3.1,0,6,0.3,8.9,0.9
			c7.1,1.5,14.2,5,21.1,10.4c0.8,0.6,1.3,1.3,1.5,1.8c0,0.2,0,0.5,0.1,0.7C841.9,338.7,841.2,339.3,839.7,339.7L839.7,339.7z
			 M880,390.7c5.5-2.1,11.7-3.2,18.4-3.2c2.3,0,4.6,0.1,7,0.4c1.7,0.2,3,0.8,3.3,1.7c0.3,0.9-0.2,2.2-1.3,3.4
			c-6.4,7-13.5,12-20.8,14.8c-7.4,2.8-15.9,3.7-25.4,2.8c-1.7-0.2-3-0.8-3.3-1.7c-0.3-0.9,0.2-2.2,1.3-3.4
			C865.6,398.5,872.6,393.5,880,390.7L880,390.7z M939.1,183.3c3.6-5.1,9.3-7.8,15.1-7.8c3.3,0,6.6,0.9,9.6,2.7l20.4,12.6
			c0,0,0,0,0,0c4.3,2.7,9.2,3.9,14.3,3.4l30.2-2.5c4.3-0.4,8.3,1.3,11.2,4.4s4,7.4,3.2,11.6l-5.7,29.9c-0.9,4.9-0.3,10,1.9,14.5
			l10.3,21.7c4.2,8.8,0.8,19.3-7.8,24c-26.7,14.7-57.9,19.3-87.8,13.1l-5.2-1.1l37.4-25.6c3.4-2.3,4.3-7,2-10.4
			c-2.3-3.4-7-4.3-10.4-2l-49,33.5c-0.3-0.1-0.6-0.2-0.9-0.4c-0.1,0-0.1-0.1-0.2-0.1c-2.1-1-3.9-2.5-5.4-4.2c0,0-0.1-0.1-0.1-0.1
			c-0.1-0.1-0.1-0.2-0.2-0.2c-1.2-1.6-2.2-3.3-2.8-5.3c0-0.4-0.1-0.8-0.2-1.2l35.2-48.7c2.4-3.4,1.7-8.1-1.7-10.5
			c-3.4-2.4-8.1-1.7-10.5,1.7l-25.4,35.1l-0.3-2.6C913.5,238.8,921.6,208.3,939.1,183.3L939.1,183.3z M1071.7,326.1
			c-2.1,10.9-11.3,18.8-22.4,19.2c-28.8,1-57.8-5-83.8-17.2c4.9,0.5,9.7,0.7,14.6,0.7c23.9,0,47.7-6,68.9-17.7
			c4.7-2.6,8.5-6.1,11.4-10.3l2.6,2C1070,308.4,1073.4,317.3,1071.7,326.1L1071.7,326.1z"/>
	</g>
</g>
</svg>
