<?xml version="1.0" encoding="utf-8"?>
<!-- Generator: Adobe Illustrator 24.0.1, SVG Export Plug-In . SVG Version: 6.00 Build 0)  -->
<svg version="1.1" id="Warstwa_1" xmlns="http://www.w3.org/2000/svg" xmlns:xlink="http://www.w3.org/1999/xlink" x="0px" y="0px"
	 viewBox="0 0 480 320" style="enable-background:new 0 0 480 320;" xml:space="preserve">
<g>
	<path d="M121.8,16.7c53.8-27.4,5.5,93.1,35.6,94.5c24-14.6-3.3-108.2,20.1-95.9c35.3-18.2,11.7,93.3,21.7,115.3
		c-6.6,7.2-18.9-1.8-26-6.8C113,148.5,116.1,53.5,121.8,16.7z"/>
	<path d="M405.4,55.9c-1.9-66.7-7.5-8.5-33.4-39c-10.3-5.1,22.2-13.7,36.6-9.3c41.6-0.8,22,78.5,24.2,113
		c2.2,21.8-16.9,10.6-28.5,8.6C363.4,148.6,325.9,33.3,405.4,55.9z M385.7,95.3c1.5,16.8,5.1,24.2,20.1,6.9
		c-0.1-12-0.9-23.4,0.3-36.7C388.4,59.6,386.4,78,385.7,95.3z"/>
	<path d="M46.9,113.1c71.2-5.5,84.7,20.4,32.7,15.2c-18.1-3.6-39.4,7.9-57.4-1.2c-19.9-13,29.9-79.4,42.4-98
		c-14.8-5.7-26.9,13.6-40.5-11.8c-0.2-3.9,87.8-11.5,83.9,4.5C81.2,47.7,61.5,76.9,46.9,113.1z"/>
	<path d="M341.6,55c5.5,19.6-3.3,42.1,2.6,64.9c5.1,17.1-26.4,16.4-27-1.1C317.1,78.5,301,41.7,341.6,55z"/>
	<path d="M309.4,18.9c13.9-0.9-10-13.3,11.1-12.5c46.2,2.8,25.8,49.9-11.4,13.1C309.2,19.3,309.3,19.1,309.4,18.9z"/>
	<path d="M238.5,113.2c71.2-5.5,84.7,20.4,32.7,15.2c-18.1-3.6-39.4,7.9-57.4-1.2c-19.9-13,29.9-79.4,42.4-98
		c-14.8-5.7-26.9,13.6-40.5-11.8c-0.2-3.9,87.8-11.5,83.9,4.5C272.7,47.8,253,77,238.5,113.2z"/>
</g>
<g>
	<path d="M266.4,294.1c3.3,3-23.3-0.2-32.4-35.4c-3.1,2.7-5.2,2.2-20.1,35.4c-26.4,7.9-30.2-6.7-20.9-131.8
		c28.2-10.9,26.1,13.3,24.5,86.2c7.6-19.7,30.8-45.5,39.8-1.4c1.1-1-5.6-132.5,30.3-61.9C283.2,182.9,297.6,328.4,266.4,294.1z"/>
	<path d="M23.7,290.6c-1,0.6-2,1.1-3.2,1.7c-15.6-15.3-5.2-100.3-0.6-118.1c19.5-6.7,62.7-19.3,82.1,2.1
		c9.6,10.2-14.8,75.6-60.1,69.4C38.2,256.8,50,316,23.7,290.6z M42.1,224.8c0.1,0,0.2,0,0.2,0c0.1,1.4-0.1,0.7,0.6,3.3
		c16.5-8.4,28.4-29.3,31.3-48.6C47.8,168.3,44.9,205.3,42.1,224.8z"/>
	<path d="M295.9,206.4c9-10.4,4.1-29.1,12.1-43.6c34.1-22.8,104.4,24.5,45.7,53.8c-5.9,1.1-28.9-10.2-26.3,6.8
		c-1.9,24.9-4.1,87.6,29.7,37.6c56.9,15.7-38.2,69.5-56.6-2.4C295,242.1,307.2,220.8,295.9,206.4z M334.8,200c0,0,0,0.1,0,0.1
		c32.2-5.7,2.1-63.7-5.8-1C329.7,200.2,331.2,200,334.8,200z"/>
	<path d="M400.8,292.3c-22.8-3.8,1.9-48.4-15.1-55.5c-0.7,1.7-20.8-2.6-20.7-12c41-8.2,22,4.3,24.5-67.4
		c31.5-5.6,29.4,3.1,31.9,52.6c0.9-10.9,56.7-25.3,35-0.4c-5.7,19.4-40.3,11.1-36.4,36.4c-0.8,46.1-9.7,19.8,46,36.3
		C473.7,291.8,426.5,299.3,400.8,292.3z"/>
	<path d="M148.9,220.1c-1.9-66.7-7.5-8.5-33.4-39c-10.3-5.1,22.2-13.7,36.6-9.3c41.6-0.8,22,78.5,24.2,113
		c2.2,21.8-16.9,10.6-28.5,8.6C106.8,312.9,69.3,197.6,148.9,220.1z M129.1,259.5c1.5,16.8,5.1,24.2,20.1,6.9
		c-0.1-12-0.9-23.4,0.3-36.7C131.8,223.8,129.9,242.2,129.1,259.5z"/>
</g>
</svg>
