<svg xmlns="http://www.w3.org/2000/svg" viewBox="0 0 454.68 293.3"><path d="M564.83,221.57c53.8-27.39,5.51,93.09,35.61,94.54,24-14.63-1.27-80.39,20.08-95.93C651,198,632.25,313.47,642.26,335.51c-6.58,7.16-18.86-1.79-26-6.85C556,353.32,559.08,258.36,564.83,221.57Z" transform="translate(-455.25 -209.7)" fill="#fff"/><path d="M848.45,260.7C845,194,822,250,815.07,221.73c-2.76-11.24,20.39-14,36.93-10.73,40.79,8.13,21.77,79.95,23.89,114.52,2.2,21.84-16.91,10.62-28.45,8.6C806.41,353.47,768.87,238.18,848.45,260.7Zm-19.79,39.41c1.46,16.77,5.08,24.19,20.12,6.86-.07-12.05-.9-23.43.35-36.72C831.41,264.39,827,283,828.66,300.11Z" transform="translate(-455.25 -209.7)" fill="#fff"/><path d="M784.64,259.86c5.54,19.62-3.35,42.14,2.61,64.87,5.13,17.14-26.36,16.44-27-1.08C760.14,283.37,744,246.53,784.64,259.86Z" transform="translate(-455.25 -209.7)" fill="#fff"/><path d="M752.24,224.06c13.89-.94-9.86-13.65,11.28-12.83,46.18,2.81,26,49.61-11.28,12.83C752.35,223.84,752.14,224.27,752.24,224.06Z" transform="translate(-455.25 -209.7)" fill="#fff"/><path d="M681.49,318c71.2-5.54,84.71,20.22,32.67,15.2-23.16-2.24-39.41,7.94-57.39-1.16-19.92-13,29.88-79.41,42.41-98-14.79-5.74-26.87,13.55-40.51-11.81-.21-3.91,87.84-11.5,83.89,4.54C715.74,252.63,696,281.85,681.49,318Z" transform="translate(-455.25 -209.7)" fill="#fff"/><path d="M708,503c-2,0-21.88-4.27-31-39.47-3.1,2.71-5.17,2.23-20.15,35.45-26.44,7.85-30.18-6.74-20.91-131.77,28.24-10.92,26.07,13.33,24.54,86.25,7.61-19.66,30.78-45.49,39.77-1.4,1.14-1-5.61-132.48,30.32-61.9C726.18,387.74,739,503,708,503Z" transform="translate(-455.25 -209.7)" fill="#fff"/><path d="M465.19,496.32l-1.68.91c-15.59-15.26-5.16-100.3-.59-118.06,19.53-6.69,62.72-19.31,82.08,2.13,9.65,10.16-14.82,75.64-60.09,69.37-3.64,10.8,7.69,68.29-17,46A2.41,2.41,0,0,0,465.19,496.32ZM486,433c16.54-8.37,28.41-29.28,31.28-48.56C490.82,373.19,485.27,430.41,486,433Z" transform="translate(-455.25 -209.7)" fill="#fff"/><path d="M738.92,411.27c9-10.37,4.07-29.1,12.05-43.61,34.11-22.81,104.4,24.54,45.74,53.79-5.88,1.05-27.13-10.67-27.71,6.55-.84,25-2.68,87.82,31.08,37.86,56.87,15.66-38.25,69.53-56.6-2.44C738,446.9,750.2,425.67,738.92,411.27Zm38.91-6.38s0,0,0,0c32.21-5.73,2.09-63.62-5.81-.94C772.73,405.09,774,405,777.83,404.89Z" transform="translate(-455.25 -209.7)" fill="#fff"/><path d="M843.84,497.18c-21.26-3.59-1.21-42.52-12.15-53.57a5.52,5.52,0,0,0-4.06-1.6c-4.4.13-19.68-4.18-19.59-12.34,41-8.24,22,4.34,24.53-67.43,31.5-5.65,29.42,3.14,31.93,52.58.88-10.9,53.72-27.62,35-.4C886,434,864,422,863.08,450.85c-1.48,46.11-9.67,19.79,46,36.32C916.68,496.68,869.52,504.12,843.84,497.18Z" transform="translate(-455.25 -209.7)" fill="#fff"/><path d="M490.85,317.54c71.2-5.55,84.71,20.22,32.67,15.19-23.16-2.23-39.41,7.94-57.39-1.15-19.92-13,29.88-79.41,42.41-98-14.79-5.73-26.87,13.56-40.51-11.8-.21-3.91,87.84-11.5,83.89,4.54C525.1,252.13,505.4,281.35,490.85,317.54Z" transform="translate(-455.25 -209.7)" fill="#fff"/><path d="M591.45,422.59c-3.45-66.69-26.45-10.69-33.38-39-2.76-11.24,20.38-14,36.93-10.72,40.78,8.12,21.76,80,23.89,114.52C621.09,509.26,602,498,590.43,496,549.41,515.37,511.87,400.08,591.45,422.59ZM571.66,462c1.46,16.77,5.08,24.19,20.12,6.86-.07-12-.91-23.42.35-36.72C574.4,426.29,570,444.9,571.66,462Z" transform="translate(-455.25 -209.7)" fill="#fff"/></svg>