<?xml version="1.0" encoding="utf-8"?>
<!-- Generator: Adobe Illustrator 24.0.1, SVG Export Plug-In . SVG Version: 6.00 Build 0)  -->
<svg version="1.1" id="Warstwa_1" xmlns="http://www.w3.org/2000/svg" xmlns:xlink="http://www.w3.org/1999/xlink" x="0px" y="0px"
	 viewBox="0 0 300 300" style="enable-background:new 0 0 300 300;" xml:space="preserve">
<style type="text/css">
	.st0{fill:#EF3340;}
	.st1{fill:#E5CCAF;}
</style>
<g>
	<path class="st0" d="M234.5,17.7c2.5-2.5,5.7-3.7,8.9-3.7c3,0,6,1.1,8.4,3.2c4.1,3.7,10.3,3.7,14.4,0c5-4.4,12.6-4.2,17.3,0.5
		c2.4,2.4,3.7,5.5,3.7,8.9c0,3.4-1.3,6.5-3.7,8.9L259,60l-24.5-24.5c-2.4-2.4-3.7-5.5-3.7-8.9C230.8,23.3,232.1,20.1,234.5,17.7z"/>
	<path class="st1" d="M113.5,8.4C54.7,8.4,7,56.1,7,115s47.7,106.5,106.5,106.5S220.1,173.8,220.1,115S172.4,8.4,113.5,8.4z
		 M113.5,185.1c-38.7,0-70.1-31.4-70.1-70.1c0-38.7,31.4-70.1,70.1-70.1s70.1,31.4,70.1,70.1C183.6,153.7,152.3,185.1,113.5,185.1z"
		/>
	<path class="st1" d="M186.5,78.7c-58.8,0-106.5,47.7-106.5,106.5s47.7,106.5,106.5,106.5S293,244.1,293,185.2
		S245.3,78.7,186.5,78.7z M186.5,255.3c-38.7,0-70.1-31.4-70.1-70.1c0-38.7,31.4-70.1,70.1-70.1s70.1,31.4,70.1,70.1
		C256.6,224,225.2,255.3,186.5,255.3z"/>
	<path d="M222.5,77.5c-7.3-21.4-21-40.5-39.1-54.3C163.3,8,139.4,0,114.3,0C51.3,0,0,51.3,0,114.3c0,50.2,32.5,92.9,77.5,108.2
		c7.3,21.4,21,40.5,39.1,54.2c20,15.2,43.9,23.3,69.2,23.3c63,0,114.3-51.3,114.3-114.3C300,135.6,267.5,92.9,222.5,77.5z
		 M17.6,114.3c0-53.3,43.4-96.7,96.7-96.7c37.4,0,71.4,22,87.2,55c-5.2-0.7-10.4-1.1-15.8-1.1c-1.6,0-3.3,0-4.9,0.1
		c-14.5-22.6-39.5-36.4-66.6-36.4c-43.6,0-79.1,35.5-79.1,79.1s35.5,79.1,79.1,79.1c20.9,0,40.6-8.1,55.5-22.7
		c12.7-12.5,20.7-28.6,22.9-46c6,0.7,11.8,2.2,17.1,4.5c-7.2,47-47.2,81.8-95.5,81.8C60.9,210.9,17.6,167.6,17.6,114.3L17.6,114.3z
		 M161,74.2c-19.4,4.3-37.5,13.6-52.4,27.3c-17.4,16-29.3,36.7-34.3,59.4c-13.1-11.3-21.5-28-21.5-46.7c0-33.9,27.6-61.5,61.5-61.5
		C132.4,52.7,149.4,60.7,161,74.2z M125.2,174.8c4.6-25.1,24.6-45,49.6-49.6C170.2,150.3,150.2,170.2,125.2,174.8z M225.8,139.1
		c13.1,11.3,21.5,28,21.5,46.7c0,33.9-27.6,61.5-61.5,61.5c-18.2,0-35.1-8-46.7-21.5c19.4-4.3,37.5-13.7,52.5-27.4
		C208.9,182.5,220.8,161.8,225.8,139.1z M185.7,282.4c-37.4,0-71.4-22-87.2-55c5.2,0.7,10.4,1.1,15.8,1.1c1.6,0,3.3,0,4.9-0.1
		c14.5,22.6,39.5,36.4,66.6,36.4c43.6,0,79.1-35.5,79.1-79.1s-35.5-79.1-79.1-79.1c-20.9,0-40.6,8.1-55.4,22.7
		c-12.7,12.5-20.7,28.6-23,46.1c-6-0.7-11.8-2.2-17.1-4.5c7.2-47,47.3-81.8,95.5-81.8c53.3,0,96.7,43.4,96.7,96.7
		S239.1,282.4,185.7,282.4z"/>
	<path d="M253.3,73.6c1.6,1.6,3.9,2.6,6.2,2.6c2.3,0,4.6-0.9,6.2-2.6l26.1-26.1c5.3-5.3,8.1-12.2,8.1-19.7c0-7.4-2.9-14.4-8.2-19.7
		c-8.7-8.7-21.8-10.5-32.3-5.1c-10.5-5.4-23.6-3.6-32.3,5.1c-5.3,5.3-8.1,12.2-8.1,19.7s2.9,14.4,8.1,19.7L253.3,73.6z M239.6,20.6
		c2-2,4.6-3,7.2-3c2.4,0,4.9,0.9,6.8,2.6c3.3,3,8.4,3,11.7,0c4-3.6,10.2-3.4,14.1,0.4c1.9,1.9,3,4.5,3,7.2c0,2.7-1.1,5.3-3,7.2
		L259.5,55L239.6,35c-1.9-1.9-3-4.5-3-7.2C236.6,25.1,237.7,22.5,239.6,20.6z"/>
</g>
</svg>
